<?xml version="1.0" encoding="UTF-8" standalone="no"?>
<!DOCTYPE svg PUBLIC "-//W3C//DTD SVG 1.1//EN" "http://www.w3.org/Graphics/SVG/1.1/DTD/svg11.dtd">
<svg width="100%" height="100%" viewBox="0 0 1461 1478" version="1.1" xmlns="http://www.w3.org/2000/svg" xmlns:xlink="http://www.w3.org/1999/xlink" xml:space="preserve" xmlns:serif="http://www.serif.com/" style="fill-rule:evenodd;clip-rule:evenodd;stroke-linejoin:round;stroke-miterlimit:1.41421;">
    <g transform="matrix(1,0,0,1,-384,-1247)">
        <g transform="matrix(1,0,0,1.75095,0,-3871.36)">
            <g transform="matrix(4.04918,0,0,2.31256,331.697,2911.78)">
                <path d="M360.961,159.999C377.481,143.472 371.323,117.12 371.323,90.242C371.323,30.718 339.84,12.8 277.762,12.8C244.48,12.8 215.039,17.921 194.559,31.999C174.078,17.921 144,12.8 110.719,12.8C48.641,13.441 15.454,30.718 15.454,90.242C15.454,117.12 8.961,141.441 28.16,159.999L28.16,298.096C28.16,337.135 7.68,369.775 46.719,369.775L343.039,369.775C382.078,369.775 361.602,337.135 361.602,298.096L361.602,159.999L360.961,159.999Z" style="fill:rgb(173,107,26);fill-rule:nonzero;"/>
                <path d="M360.961,147.839C380.16,129.281 370.803,104.96 370.803,78.081C370.803,18.562 315.84,5.53 271.798,5.53C238.516,5.53 215.039,5.761 194.559,19.839C174.078,5.761 143.359,6.451 110.078,6.451C48,7.092 13.349,18.562 13.349,78.081C13.349,104.96 8.961,129.281 28.16,147.839L28.16,285.936C28.16,324.975 7.68,356.975 46.719,356.975L343.039,356.975C376.616,356.975 361.602,324.975 361.602,285.936L361.602,147.839L360.961,147.839Z" style="fill:rgb(229,166,65);fill-rule:nonzero;"/>
                <g transform="matrix(1,0,0,1,1.06681,0)">
                    <path d="M331.73,356.975C370.67,360.557 367.326,349.876 360.961,285.936L360.961,147.839C380.16,129.281 369.655,104.96 369.655,78.081C369.655,18.562 318.282,5.53 267.857,5.53C234.575,5.53 215.039,1.295 194.559,15.373C174.078,1.295 143.359,6.451 110.078,6.451" style="fill:rgb(196,126,34);fill-rule:nonzero;"/>
                </g>
                <path d="M335.359,152.96C348.16,137.601 341.443,117.752 342.056,95.999C343.367,49.451 314.238,33.281 263.68,33.281C236.801,33.281 211.84,37.761 195.199,48.64C178.559,37.12 154.238,33.281 126.719,33.281C76.16,33.281 37.48,21.824 42.354,95.999C43.78,117.714 40.961,137.601 53.762,152.96L53.762,262.896C53.762,294.896 42.238,331.377 73.602,331.377L314.879,331.377C346.879,331.377 334.719,294.256 334.719,262.896L334.719,152.96L335.359,152.96Z" style="fill:rgb(242,229,162);fill-rule:nonzero;"/>
                <path d="M315.52,331.377C347.52,331.377 335.359,294.256 335.359,262.896L335.359,152.96C348.16,137.601 343.212,117.759 343.51,95.999C344.117,51.7 314.238,33.281 263.68,33.281C236.801,33.281 211.84,28.145 195.199,39.024C178.559,27.504 154.879,33.281 127.359,33.281" style="fill:rgb(226,206,141);fill-rule:nonzero;"/>
                <path d="M133.762,126.081C133.762,134.917 126.598,142.081 117.762,142.081C108.922,142.081 101.762,134.917 101.762,126.081C101.762,117.242 108.922,110.081 117.762,110.081C126.598,110.081 133.762,117.242 133.762,126.081Z" style="fill:rgb(226,206,141);fill-rule:nonzero;"/>
                <path d="M214.398,302.081C214.398,310.917 207.238,318.081 198.398,318.081C189.562,318.081 182.398,310.917 182.398,302.081C182.398,293.242 189.562,286.081 198.398,286.081C207.238,286.081 214.398,293.242 214.398,302.081Z" style="fill:rgb(226,206,141);fill-rule:nonzero;"/>
                <path d="M121.602,266.242C121.602,271.894 117.016,276.48 111.359,276.48C105.703,276.48 101.121,271.894 101.121,266.242C101.121,260.585 105.703,255.999 111.359,255.999C117.016,255.999 121.602,260.585 121.602,266.242Z" style="fill:rgb(226,206,141);fill-rule:nonzero;"/>
                <path d="M106.879,186.242C106.879,190.835 103.156,194.562 98.559,194.562C93.965,194.562 90.238,190.835 90.238,186.242C90.238,181.644 93.965,177.921 98.559,177.921C103.156,177.921 106.879,181.644 106.879,186.242Z" style="fill:rgb(226,206,141);fill-rule:nonzero;"/>
                <path d="M165.121,226.562C165.121,231.156 161.395,234.878 156.801,234.878C152.203,234.878 148.48,231.156 148.48,226.562C148.48,221.964 152.203,218.242 156.801,218.242C161.395,218.242 165.121,221.964 165.121,226.562Z" style="fill:rgb(226,206,141);fill-rule:nonzero;"/>
                <path d="M266.879,182.402C266.879,186.995 263.156,190.718 258.558,190.718C253.965,190.718 250.238,186.995 250.238,182.402C250.238,177.804 253.965,174.081 258.558,174.081C263.156,174.081 266.879,177.804 266.879,182.402Z" style="fill:rgb(242,229,162);fill-rule:nonzero;"/>
                <g transform="matrix(1.32919,0,0,1.32919,-30.2676,-155.864)">
                    <path d="M266.879,182.402C266.879,186.995 263.156,190.718 258.558,190.718C253.965,190.718 250.238,186.995 250.238,182.402C250.238,177.804 253.965,174.081 258.558,174.081C263.156,174.081 266.879,177.804 266.879,182.402Z" style="fill:rgb(242,229,162);fill-rule:nonzero;"/>
                </g>
                <path d="M88.961,83.839C88.961,87.374 86.094,90.242 82.559,90.242C79.023,90.242 76.16,87.374 76.16,83.839C76.16,80.304 79.023,77.441 82.559,77.441C86.094,77.441 88.961,80.304 88.961,83.839Z" style="fill:rgb(226,206,141);fill-rule:nonzero;"/>
                <path d="M156.801,165.761C156.801,169.296 153.934,172.16 150.398,172.16C146.867,172.16 144,169.296 144,165.761C144,162.226 146.867,159.359 150.398,159.359C153.934,159.359 156.801,162.226 156.801,165.761Z" style="fill:rgb(226,206,141);fill-rule:nonzero;"/>
                <path d="M250.238,108.16C250.238,111.695 247.375,114.562 243.84,114.562C240.305,114.562 237.441,111.695 237.441,108.16C237.441,104.624 240.305,101.761 243.84,101.761C247.375,101.761 250.238,104.624 250.238,108.16Z" style="fill:rgb(242,229,162);fill-rule:nonzero;"/>
                <path d="M209.922,221.441C209.922,223.562 208.199,225.281 206.078,225.281C203.961,225.281 202.238,223.562 202.238,221.441C202.238,219.32 203.961,217.601 206.078,217.601C208.199,217.601 209.922,219.32 209.922,221.441Z" style="fill:rgb(226,206,141);fill-rule:nonzero;"/>
                <path d="M297.602,216.96C297.602,219.081 295.879,220.8 293.762,220.8C291.641,220.8 289.922,219.081 289.922,216.96C289.922,214.839 291.641,213.12 293.762,213.12C295.879,213.12 297.602,214.839 297.602,216.96Z" style="fill:rgb(242,229,162);fill-rule:nonzero;"/>
            </g>
        </g>
        <g transform="matrix(1,0,0,1.75095,0,-3871.36)">
            <g transform="matrix(10.6082,0,0,6.05854,-4224.18,-947.618)">
                <path d="M484.272,689.162L462.17,689.162C461.52,688.862 461.17,687.812 461.07,686.312C460.97,677.612 460.87,668.962 460.82,660.312L455.17,660.312L455.17,690.512L455.22,690.762C455.52,692.212 456.02,693.062 456.42,694.162C457.67,694.662 458.47,695.112 459.82,695.112C464.82,695.062 479.372,694.962 484.372,694.862L484.272,689.162Z" style="fill:rgb(66,41,10);fill-rule:nonzero;"/>
                <g transform="matrix(1,0,0,1,-14.1931,-9.13381)">
                    <path d="M485.47,689.362C484.67,689.062 484.22,688.262 484.07,687.012C483.97,680.662 483.77,683.863 483.77,677.563C483.77,676.563 484.12,675.913 484.87,675.513L492.67,675.813C493.42,676.563 493.82,677.613 493.82,678.913C493.82,684.363 493.57,680.312 493.42,685.762C493.37,687.412 492.97,688.612 492.22,689.412C489.97,689.362 487.72,689.362 485.47,689.362ZM482.92,670.013C480.12,670.113 478.37,671.713 478.37,674.213C478.37,682.913 478.42,682.112 478.57,690.862C478.62,693.362 480.32,695.012 483.02,695.012C487.02,695.062 490.97,695.212 494.97,695.212C497.52,695.212 499.02,693.612 499.02,690.962L499.02,673.963C499.02,672.213 497.12,669.913 495.57,669.913L495.27,669.963L482.92,670.013Z" style="fill:rgb(66,41,10);fill-rule:nonzero;"/>
                </g>
                <g transform="matrix(1,0,0,1,-14.3717,0)">
                    <path d="M523.17,662.662C521.87,661.562 519.72,660.662 517.42,660.612C513.92,660.512 510.37,660.312 506.92,660.312C504.22,660.312 502.82,661.862 502.82,664.462L502.82,690.962C502.82,692.962 504.52,694.462 506.82,694.962L517.62,694.962C519.17,694.962 520.52,694.212 521.17,693.312C521.82,691.562 522.47,689.812 523.17,688.062C522.07,687.362 521.02,686.662 519.97,685.962L511.57,689.462C510.42,689.462 509.37,689.312 508.47,689.112C508.32,688.362 508.22,687.612 508.22,686.712L508.27,685.812L508.27,667.262C508.87,666.312 510.02,665.862 511.72,665.862L511.72,668.962L523.17,668.562L523.17,662.662Z" style="fill:rgb(66,41,10);fill-rule:nonzero;"/>
                </g>
                <g transform="matrix(1,0,0,1,-15.9289,0)">
                    <path d="M531.92,695.262L533.17,687.712C533.27,686.712 533.62,685.812 534.07,685.062L538.27,685.062L538.72,685.012C538.92,685.012 539.07,685.062 539.27,685.112C539.47,685.762 539.62,686.612 539.72,687.462L541.17,695.412L547.07,695.162L546.87,693.762C545.92,687.212 545.02,680.662 543.97,674.062C543.62,671.912 543.22,669.812 542.82,667.662L541.57,663.412C540.92,661.712 539.97,660.812 538.97,660.812C538.47,660.812 537.92,661.062 532.87,661.612C531.52,662.762 530.32,664.812 530.02,666.962L526.32,695.012C528.17,695.062 530.07,695.162 531.92,695.262ZM534.67,670.562C535.22,669.812 535.87,669.462 536.47,669.462C537.07,669.462 537.67,669.812 538.27,670.462L538.97,677.312C539.02,677.712 539.07,678.062 539.07,678.412C539.07,678.862 539.02,679.262 538.87,679.612C537.92,679.762 536.57,679.812 535.42,679.812C535.02,679.812 534.62,679.762 534.27,679.712C534.12,679.312 534.07,678.862 534.07,678.362C534.07,678.012 534.12,677.662 534.17,677.262L534.67,670.562Z" style="fill:rgb(66,41,10);fill-rule:nonzero;"/>
                </g>
                <g transform="matrix(1,0,0,1,-16.3346,0)">
                    <path d="M569.87,689.162L557.27,689.162C556.62,688.862 556.27,687.812 556.17,686.312C556.07,677.612 555.97,668.962 555.92,660.312L550.27,660.312L550.27,690.512L550.32,690.762C550.62,692.212 551.12,693.062 551.52,694.162C552.77,694.662 553.57,695.112 554.92,695.112C559.92,695.062 564.97,694.962 569.97,694.862L569.87,689.162Z" style="fill:rgb(66,41,10);fill-rule:nonzero;"/>
                </g>
                <g transform="matrix(1,0,0,1,0,-10.2971)">
                    <path d="M462.12,716.362C462.82,717.012 463.17,718.112 463.17,719.562L463.17,745.412L468.42,745.612C468.47,736.962 468.52,728.262 468.52,719.562C468.52,718.262 468.92,717.262 469.62,716.662L492.751,716.662C492.801,715.012 492.851,713.212 492.851,711.462L455.12,710.712L455.12,716.062L462.12,716.362Z" style="fill:rgb(66,41,10);fill-rule:nonzero;"/>
                </g>
                <g transform="matrix(1,0,0,1,-8.14408,-10.2971)">
                    <path d="M487.87,739.812C487.07,739.512 486.62,738.712 486.47,737.462C486.37,731.112 486.17,733.635 486.17,727.335C486.17,726.335 486.52,725.685 487.27,725.285L495.07,725.585C495.82,726.335 496.22,727.385 496.22,728.685C496.22,734.135 495.97,730.762 495.82,736.212C495.77,737.862 495.37,739.062 494.62,739.862C492.37,739.812 490.12,739.812 487.87,739.812ZM485.32,719.785C482.52,719.885 480.77,721.485 480.77,723.985C480.77,732.685 480.82,732.562 480.97,741.312C481.02,743.812 482.72,745.462 485.42,745.462C489.42,745.512 493.37,745.662 497.37,745.662C499.92,745.662 501.42,744.062 501.42,741.412L501.42,723.735C501.42,721.985 499.52,719.685 497.97,719.685L497.67,719.735L485.32,719.785Z" style="fill:rgb(66,41,10);fill-rule:nonzero;"/>
                </g>
                <g transform="matrix(1,0,0,1,-9.04586,-10.2971)">
                    <path d="M510.47,745.712L511.72,738.162C511.82,737.162 512.17,736.262 512.62,735.512L516.82,735.512L517.27,735.462C517.47,735.462 517.62,735.512 517.82,735.562C518.02,736.212 518.17,737.062 518.27,737.912L519.72,745.862L525.62,745.612L525.42,744.212C524.47,737.662 523.57,731.112 522.52,724.512C522.17,722.362 521.77,720.262 521.37,718.112L520.12,713.862C519.47,712.162 518.52,711.262 517.52,711.262C517.02,711.262 516.47,711.512 511.42,712.062C510.07,713.212 508.87,715.262 508.57,717.412L504.87,745.462C506.72,745.512 508.62,745.612 510.47,745.712ZM513.22,721.012C513.77,720.262 514.42,719.912 515.02,719.912C515.62,719.912 516.22,720.262 516.82,720.912L517.52,727.762C517.57,728.162 517.62,728.512 517.62,728.862C517.62,729.312 517.57,729.712 517.42,730.062C516.47,730.212 515.12,730.262 513.97,730.262C513.57,730.262 513.17,730.212 512.82,730.162C512.67,729.762 512.62,729.312 512.62,728.812C512.62,728.462 512.67,728.112 512.72,727.712L513.22,721.012Z" style="fill:rgb(66,41,10);fill-rule:nonzero;"/>
                </g>
                <g transform="matrix(1,0,0,1,-11.1172,-10.1471)">
                    <path d="M540.726,712.862C540.176,711.762 538.876,710.862 537.026,710.862C536.726,710.862 536.426,710.862 536.126,710.912L532.87,710.912C532.62,710.862 532.37,710.812 532.12,710.812C530.12,710.812 528.67,712.662 528.67,715.112L528.67,715.362C528.67,719.412 528.47,723.412 528.37,727.412C528.47,729.762 530.17,731.162 532.87,731.162L533.32,731.162C536.32,731.012 539.32,730.912 542.32,730.862C543.32,731.412 543.82,732.612 543.82,734.362C543.82,735.862 543.77,737.362 543.72,738.862C543.07,739.562 542.12,739.912 540.87,739.912C540.47,739.912 540.07,739.862 539.62,739.812C536.97,738.412 534.47,737.062 531.97,735.712L528.62,738.712C529.12,740.012 529.62,741.262 530.17,742.562C530.67,743.612 532.02,744.562 533.52,744.712L544.17,745.662C544.37,745.712 544.52,745.712 544.72,745.712C546.87,745.712 548.42,744.412 548.87,742.312C548.92,738.312 549.02,734.312 549.02,730.362C549.02,726.762 547.72,725.512 543.87,725.512L535.97,725.512C535.72,725.612 535.47,725.662 535.22,725.662C534.87,725.662 534.57,725.562 534.27,725.412C534.07,724.862 533.97,724.162 533.97,723.362C533.97,721.762 534.12,720.162 534.17,718.562C534.22,717.612 534.42,716.912 534.77,716.312C535.37,716.112 536.07,716.012 536.92,716.012L538.57,716.012L540.576,716.126L540.726,712.862Z" style="fill:rgb(66,41,10);fill-rule:nonzero;"/>
                </g>
                <g transform="matrix(1,0,0,1,-20.7789,-10.2971)">
                    <path d="M559.57,716.362C560.27,717.012 560.62,718.112 560.62,719.562L560.62,745.412L565.87,745.612C565.92,736.962 565.97,728.262 565.97,719.562C565.97,718.262 566.37,717.262 567.07,716.662L574.32,716.662C574.37,715.012 574.42,713.212 574.42,711.462L552.57,710.712L552.57,716.062L559.57,716.362Z" style="fill:rgb(66,41,10);fill-rule:nonzero;"/>
                </g>
            </g>
        </g>
        <g transform="matrix(1,0,0,1.75095,0,-3871.36)">
            <g transform="matrix(10.6082,0,0,6.05854,-4232.82,-953.374)">
                <path d="M484.272,689.162L462.17,689.162C461.52,688.862 461.17,687.812 461.07,686.312C460.97,677.612 460.87,668.962 460.82,660.312L455.17,660.312L455.17,690.512L455.22,690.762C455.52,692.212 456.02,693.062 456.42,694.162C457.67,694.662 458.47,695.112 459.82,695.112C464.82,695.062 479.372,694.962 484.372,694.862L484.272,689.162Z" style="fill:rgb(108,67,16);fill-rule:nonzero;"/>
                <g transform="matrix(1,0,0,1,-14.1931,-9.13381)">
                    <path d="M485.47,689.362C484.67,689.062 484.22,688.262 484.07,687.012C483.97,680.662 483.77,683.863 483.77,677.563C483.77,676.563 484.12,675.913 484.87,675.513L492.67,675.813C493.42,676.563 493.82,677.613 493.82,678.913C493.82,684.363 493.57,680.312 493.42,685.762C493.37,687.412 492.97,688.612 492.22,689.412C489.97,689.362 487.72,689.362 485.47,689.362ZM482.92,670.013C480.12,670.113 478.37,671.713 478.37,674.213C478.37,682.913 478.42,682.112 478.57,690.862C478.62,693.362 480.32,695.012 483.02,695.012C487.02,695.062 490.97,695.212 494.97,695.212C497.52,695.212 499.02,693.612 499.02,690.962L499.02,673.963C499.02,672.213 497.12,669.913 495.57,669.913L495.27,669.963L482.92,670.013Z" style="fill:rgb(108,67,16);fill-rule:nonzero;"/>
                </g>
                <g transform="matrix(1,0,0,1,-14.3717,0)">
                    <path d="M523.17,662.662C521.87,661.562 519.72,660.662 517.42,660.612C513.92,660.512 510.37,660.312 506.92,660.312C504.22,660.312 502.82,661.862 502.82,664.462L502.82,690.962C502.82,692.962 504.52,694.462 506.82,694.962L517.62,694.962C519.17,694.962 520.52,694.212 521.17,693.312C521.82,691.562 522.47,689.812 523.17,688.062C522.07,687.362 521.02,686.662 519.97,685.962L511.57,689.462C510.42,689.462 509.37,689.312 508.47,689.112C508.32,688.362 508.22,687.612 508.22,686.712L508.27,685.812L508.27,667.262C508.87,666.312 510.02,665.862 511.72,665.862L511.72,668.962L523.17,668.562L523.17,662.662Z" style="fill:rgb(108,67,16);fill-rule:nonzero;"/>
                </g>
                <g transform="matrix(1,0,0,1,-15.9289,0)">
                    <path d="M531.92,695.262L533.17,687.712C533.27,686.712 533.62,685.812 534.07,685.062L538.27,685.062L538.72,685.012C538.92,685.012 539.07,685.062 539.27,685.112C539.47,685.762 539.62,686.612 539.72,687.462L541.17,695.412L547.07,695.162L546.87,693.762C545.92,687.212 545.02,680.662 543.97,674.062C543.62,671.912 543.22,669.812 542.82,667.662L541.57,663.412C540.92,661.712 539.97,660.812 538.97,660.812C538.47,660.812 537.92,661.062 532.87,661.612C531.52,662.762 530.32,664.812 530.02,666.962L526.32,695.012C528.17,695.062 530.07,695.162 531.92,695.262ZM534.67,670.562C535.22,669.812 535.87,669.462 536.47,669.462C537.07,669.462 537.67,669.812 538.27,670.462L538.97,677.312C539.02,677.712 539.07,678.062 539.07,678.412C539.07,678.862 539.02,679.262 538.87,679.612C537.92,679.762 536.57,679.812 535.42,679.812C535.02,679.812 534.62,679.762 534.27,679.712C534.12,679.312 534.07,678.862 534.07,678.362C534.07,678.012 534.12,677.662 534.17,677.262L534.67,670.562Z" style="fill:rgb(108,67,16);fill-rule:nonzero;"/>
                </g>
                <g transform="matrix(1,0,0,1,-16.3346,0)">
                    <path d="M569.87,689.162L557.27,689.162C556.62,688.862 556.27,687.812 556.17,686.312C556.07,677.612 555.97,668.962 555.92,660.312L550.27,660.312L550.27,690.512L550.32,690.762C550.62,692.212 551.12,693.062 551.52,694.162C552.77,694.662 553.57,695.112 554.92,695.112C559.92,695.062 564.97,694.962 569.97,694.862L569.87,689.162Z" style="fill:rgb(108,67,16);fill-rule:nonzero;"/>
                </g>
                <g transform="matrix(1,0,0,1,0,-10.2971)">
                    <path d="M462.12,716.362C462.82,717.012 463.17,718.112 463.17,719.562L463.17,745.412L468.42,745.612C468.47,736.962 468.52,728.262 468.52,719.562C468.52,718.262 468.92,717.262 469.62,716.662L492.751,716.662C492.801,715.012 492.851,713.212 492.851,711.462L455.12,710.712L455.12,716.062L462.12,716.362Z" style="fill:rgb(108,67,16);fill-rule:nonzero;"/>
                </g>
                <g transform="matrix(1,0,0,1,-8.14408,-10.2971)">
                    <path d="M487.87,739.812C487.07,739.512 486.62,738.712 486.47,737.462C486.37,731.112 486.17,733.635 486.17,727.335C486.17,726.335 486.52,725.685 487.27,725.285L495.07,725.585C495.82,726.335 496.22,727.385 496.22,728.685C496.22,734.135 495.97,730.762 495.82,736.212C495.77,737.862 495.37,739.062 494.62,739.862C492.37,739.812 490.12,739.812 487.87,739.812ZM485.32,719.785C482.52,719.885 480.77,721.485 480.77,723.985C480.77,732.685 480.82,732.562 480.97,741.312C481.02,743.812 482.72,745.462 485.42,745.462C489.42,745.512 493.37,745.662 497.37,745.662C499.92,745.662 501.42,744.062 501.42,741.412L501.42,723.735C501.42,721.985 499.52,719.685 497.97,719.685L497.67,719.735L485.32,719.785Z" style="fill:rgb(108,67,16);fill-rule:nonzero;"/>
                </g>
                <g transform="matrix(1,0,0,1,-9.04586,-10.2971)">
                    <path d="M510.47,745.712L511.72,738.162C511.82,737.162 512.17,736.262 512.62,735.512L516.82,735.512L517.27,735.462C517.47,735.462 517.62,735.512 517.82,735.562C518.02,736.212 518.17,737.062 518.27,737.912L519.72,745.862L525.62,745.612L525.42,744.212C524.47,737.662 523.57,731.112 522.52,724.512C522.17,722.362 521.77,720.262 521.37,718.112L520.12,713.862C519.47,712.162 518.52,711.262 517.52,711.262C517.02,711.262 516.47,711.512 511.42,712.062C510.07,713.212 508.87,715.262 508.57,717.412L504.87,745.462C506.72,745.512 508.62,745.612 510.47,745.712ZM513.22,721.012C513.77,720.262 514.42,719.912 515.02,719.912C515.62,719.912 516.22,720.262 516.82,720.912L517.52,727.762C517.57,728.162 517.62,728.512 517.62,728.862C517.62,729.312 517.57,729.712 517.42,730.062C516.47,730.212 515.12,730.262 513.97,730.262C513.57,730.262 513.17,730.212 512.82,730.162C512.67,729.762 512.62,729.312 512.62,728.812C512.62,728.462 512.67,728.112 512.72,727.712L513.22,721.012Z" style="fill:rgb(108,67,16);fill-rule:nonzero;"/>
                </g>
                <g transform="matrix(1,0,0,1,-11.1172,-10.1471)">
                    <path d="M540.726,712.862C540.176,711.762 538.876,710.862 537.026,710.862C536.726,710.862 536.426,710.862 536.126,710.912L532.87,710.912C532.62,710.862 532.37,710.812 532.12,710.812C530.12,710.812 528.67,712.662 528.67,715.112L528.67,715.362C528.67,719.412 528.47,723.412 528.37,727.412C528.47,729.762 530.17,731.162 532.87,731.162L533.32,731.162C536.32,731.012 539.32,730.912 542.32,730.862C543.32,731.412 543.82,732.612 543.82,734.362C543.82,735.862 543.77,737.362 543.72,738.862C543.07,739.562 542.12,739.912 540.87,739.912C540.47,739.912 540.07,739.862 539.62,739.812C536.97,738.412 534.47,737.062 531.97,735.712L528.62,738.712C529.12,740.012 529.62,741.262 530.17,742.562C530.67,743.612 532.02,744.562 533.52,744.712L544.17,745.662C544.37,745.712 544.52,745.712 544.72,745.712C546.87,745.712 548.42,744.412 548.87,742.312C548.92,738.312 549.02,734.312 549.02,730.362C549.02,726.762 547.72,725.512 543.87,725.512L535.97,725.512C535.72,725.612 535.47,725.662 535.22,725.662C534.87,725.662 534.57,725.562 534.27,725.412C534.07,724.862 533.97,724.162 533.97,723.362C533.97,721.762 534.12,720.162 534.17,718.562C534.22,717.612 534.42,716.912 534.77,716.312C535.37,716.112 536.07,716.012 536.92,716.012L538.57,716.012L540.576,716.126L540.726,712.862Z" style="fill:rgb(108,67,16);fill-rule:nonzero;"/>
                </g>
                <g transform="matrix(1,0,0,1,-20.7789,-10.2971)">
                    <path d="M559.57,716.362C560.27,717.012 560.62,718.112 560.62,719.562L560.62,745.412L565.87,745.612C565.92,736.962 565.97,728.262 565.97,719.562C565.97,718.262 566.37,717.262 567.07,716.662L574.32,716.662C574.37,715.012 574.42,713.212 574.42,711.462L552.57,710.712L552.57,716.062L559.57,716.362Z" style="fill:rgb(108,67,16);fill-rule:nonzero;"/>
                </g>
            </g>
        </g>
        <g transform="matrix(1,0,0,1.75095,0,-3871.36)">
            <g transform="matrix(4.59933,0,0,2.62676,-1822.09,590.334)">
                <text x="542.807px" y="1156.39px" style="font-family:'PocketKnife', 'Pocket Knife';font-size:50px;fill:rgb(66,41,10);">G<tspan x="566.607px 590.507px 621.357px 630.757px 654.857px 672.957px 692.907px 717.357px 741.757px " y="1156.39px 1156.39px 1156.39px 1156.39px 1156.39px 1156.39px 1156.39px 1156.39px 1156.39px ">aming Co.</tspan></text>
            </g>
        </g>
    </g>
</svg>
