<?xml version="1.0" encoding="UTF-8" standalone="no"?>
<!DOCTYPE svg PUBLIC "-//W3C//DTD SVG 1.1//EN" "http://www.w3.org/Graphics/SVG/1.1/DTD/svg11.dtd">
<svg width="100%" height="100%" viewBox="0 0 12500 4453" version="1.1" xmlns="http://www.w3.org/2000/svg" xmlns:xlink="http://www.w3.org/1999/xlink" xml:space="preserve" xmlns:serif="http://www.serif.com/" style="fill-rule:evenodd;clip-rule:evenodd;stroke-linejoin:round;stroke-miterlimit:1.41421;">
    <g transform="matrix(1,0,0,1,0,-1.83309)">
        <g transform="matrix(4.16667,0,0,4.16667,0,0)">
            <rect x="2921.6" y="0.44" width="78.4" height="1068.56" style="fill:rgb(4,46,73);fill-rule:nonzero;"/>
            <path d="M186.32,479.067C186.32,447.607 165.021,420.505 132.114,420.505L78.397,420.505L78.397,537.613L132.114,537.613C165.021,537.613 186.32,510.527 186.32,479.067ZM0,356.626L141.788,356.626C216.804,356.626 265.205,413.254 265.205,479.067C265.205,544.88 216.804,601.491 141.788,601.491L78.397,601.491L78.397,695.383L0,695.383L0,356.626Z" style="fill:rgb(4,46,73);fill-rule:nonzero;"/>
            <path d="M492.17,453.412L450.549,592.794L532.815,592.794L492.17,453.412ZM565.251,695.383L552.197,654.25L431.69,654.25L418.618,695.383L334.887,695.383L455.882,356.626L527.987,356.626L650.428,695.383L565.251,695.383Z" style="fill:rgb(4,46,73);fill-rule:nonzero;"/>
            <path d="M782.055,424.374L705.61,424.374L705.61,356.626L937.403,356.626L937.403,424.374L860.452,424.374L860.452,695.383L782.055,695.383L782.055,424.374Z" style="fill:rgb(4,46,73);fill-rule:nonzero;"/>
            <path d="M1245.68,479.067C1245.68,447.607 1224.38,420.505 1191.47,420.505L1137.75,420.505L1137.75,537.613L1191.47,537.613C1224.38,537.613 1245.68,510.527 1245.68,479.067ZM1059.36,356.626L1201.65,356.626C1276.65,356.626 1325.05,413.254 1325.05,479.067C1325.05,526.493 1299.88,568.585 1257.77,588.437L1325.54,695.383L1234.56,695.383L1174.53,601.491L1137.75,601.491L1137.75,695.383L1059.36,695.383L1059.36,356.626Z" style="fill:rgb(4,46,73);fill-rule:nonzero;"/>
            <path d="M1536.54,419.546L1536.54,496.48L1664.78,496.48L1664.78,557.953L1536.54,557.953L1536.54,632.463L1664.78,632.463L1664.78,695.383L1458.14,695.383L1458.14,356.626L1664.78,356.626L1664.78,419.546L1536.54,419.546Z" style="fill:rgb(4,46,73);fill-rule:nonzero;"/>
            <path d="M2070.82,526.005C2070.82,470.353 2033.06,418.57 1971.61,418.57C1909.66,418.57 1872.4,470.353 1872.4,526.005C1872.4,581.657 1909.66,633.439 1971.61,633.439C2033.06,633.439 2070.82,581.657 2070.82,526.005ZM1792.05,526.005C1792.05,433.089 1858.84,347.912 1971.61,347.912C2083.87,347.912 2150.66,433.089 2150.66,526.005C2150.66,618.92 2083.87,704.098 1971.61,704.098C1858.84,704.098 1792.05,618.92 1792.05,526.005Z" style="fill:rgb(4,46,73);fill-rule:nonzero;"/>
            <path d="M2485.08,577.299L2485.08,356.626L2562.99,356.626L2562.99,695.383L2481.21,695.383L2359.24,477.604L2359.24,695.383L2280.84,695.383L2280.84,356.626L2362.62,356.626L2485.08,577.299Z" style="fill:rgb(4,46,73);fill-rule:nonzero;"/>
        </g>
    </g>
</svg>
