<?xml version="1.0" encoding="UTF-8" standalone="no"?>
<!DOCTYPE svg PUBLIC "-//W3C//DTD SVG 1.1//EN" "http://www.w3.org/Graphics/SVG/1.1/DTD/svg11.dtd">
<svg width="100%" height="100%" viewBox="0 0 352 355" version="1.1" xmlns="http://www.w3.org/2000/svg" xmlns:xlink="http://www.w3.org/1999/xlink" xml:space="preserve" xmlns:serif="http://www.serif.com/" style="fill-rule:evenodd;clip-rule:evenodd;stroke-linejoin:round;stroke-miterlimit:1.41421;">
    <g transform="matrix(1,0,0,1,-1422.8,-529.094)">
        <g transform="matrix(2.19972,0,0,2.19972,1528.47,407.339)">
            <g transform="matrix(0.313626,0,0,0.313626,-7.74198,77.3172)">
                <g transform="matrix(1.16378,0,0,1.16378,-140.113,-81.7125)">
                    <path d="M448.008,50.024C448.008,27.936 430.101,10.029 408.013,10.029L49.994,10.029C27.906,10.029 9.999,27.936 9.999,50.024L9.999,365.957C9.999,386.958 27.024,403.983 48.025,403.983L409.983,403.983C430.984,403.983 448.009,386.958 448.009,365.957L448.009,50.024L448.008,50.024Z" style="fill:rgb(237,242,250);fill-rule:nonzero;"/>
                </g>
                <g transform="matrix(1.16378,0,0,1.16378,-140.113,-81.7125)">
                    <path d="M448.008,50.024C448.008,27.936 430.101,10.029 408.013,10.029L49.994,10.029C27.906,10.029 9.999,27.936 9.999,50.024L10.059,98.087L344.758,403.983L409.983,403.983C430.984,403.983 448.009,386.958 448.009,365.957L448.009,50.024L448.008,50.024Z" style="fill:rgb(217,228,244);fill-rule:nonzero;"/>
                </g>
                <g transform="matrix(1.16378,0,0,1.16378,-140.113,-81.7125)">
                    <path d="M408.012,10.028L49.994,10.028C27.905,10.028 9.999,27.935 9.999,50.023L9.999,98.087L448.008,98.087L448.008,50.024C448.008,27.934 430.101,10.028 408.012,10.028Z" style="fill:rgb(119,174,204);fill-rule:nonzero;"/>
                </g>
                <g transform="matrix(1.16378,0,0,1.16378,-140.113,-81.7125)">
                    <path d="M54.522,45.351C49.001,45.351 44.523,49.828 44.523,55.35C44.523,60.872 49,65.349 54.522,65.349L54.622,65.349C60.143,65.349 64.571,60.872 64.571,55.35C64.571,49.828 60.044,45.351 54.522,45.351Z" style="fill:white;fill-rule:nonzero;"/>
                </g>
                <g transform="matrix(1.16378,0,0,1.16378,-154.608,-81.7125)">
                    <path d="M102.467,45.351C96.946,45.351 92.468,49.828 92.468,55.35C92.468,60.872 96.945,65.349 102.467,65.349L102.566,65.349C108.087,65.349 112.516,60.872 112.516,55.35C112.516,49.828 107.989,45.351 102.467,45.351Z" style="fill:white;fill-rule:nonzero;"/>
                </g>
                <g transform="matrix(1.16378,0,0,1.16378,-169.103,-81.7125)">
                    <path d="M150.412,45.351C144.891,45.351 140.413,49.828 140.413,55.35C140.413,60.872 144.89,65.349 150.412,65.349L150.511,65.349C156.032,65.349 160.46,60.872 160.46,55.35C160.46,49.828 155.934,45.351 150.412,45.351Z" style="fill:white;fill-rule:nonzero;"/>
                </g>
                <g transform="matrix(1.16378,0,0,1.16378,-140.113,-81.7125)">
                    <path d="M395.663,45.351L274.322,45.351C268.801,45.351 264.323,49.828 264.323,55.35C264.323,60.872 268.8,65.349 274.322,65.349L395.663,65.349C401.184,65.349 405.662,60.872 405.662,55.35C405.662,49.828 401.184,45.351 395.663,45.351Z" style="fill:white;fill-rule:nonzero;"/>
                </g>
            </g>
            <g transform="matrix(0.560853,0,0,0.560853,-56.498,87.3616)">
                <path d="M125,30L31.9,63.2L46.1,186.3L125,230L203.9,186.3L218.1,63.2L125,30Z" style="fill:rgb(221,0,49);fill-rule:nonzero;"/>
                <path d="M125,30L125,52.2L125,52.1L125,230L203.9,186.3L218.1,63.2L125,30Z" style="fill:rgb(195,0,47);fill-rule:nonzero;"/>
                <path d="M125,52.1L66.8,182.6L88.5,182.6L100.2,153.4L149.6,153.4L161.3,182.6L183,182.6L125,52.1ZM142,135.4L108,135.4L125,94.5L142,135.4Z" style="fill:white;fill-rule:nonzero;"/>
            </g>
            <g transform="matrix(0.0783569,0,0,0.0783569,68.3685,104.187)">
                <path d="M108.4,0L131.4,0L131.4,22.8L152.6,22.8L152.6,0L175.6,0L175.6,69L152.6,69L152.6,46L131.6,46L131.6,69L108.4,69M206,23L185.7,23L185.7,0L249.4,0L249.4,23L229,23L229,69L206,69M259.5,0L283.6,0L298.4,24.3L313.2,0L337.3,0L337.3,69L314.3,69L314.3,34.8L298.2,59.6L282.1,34.8L282.1,69L259.5,69M348.7,0L371.7,0L371.7,46.2L404.3,46.2L404.3,69L348.7,69" style="fill-rule:nonzero;"/>
                <path d="M107.6,471L74.6,100.6L437.4,100.6L404.4,470.8L255.7,512" style="fill:rgb(228,77,38);fill-rule:nonzero;"/>
                <path d="M256,480.5L256,131L404.3,131L376,447" style="fill:rgb(241,101,41);fill-rule:nonzero;"/>
                <path d="M142,176.3L256,176.3L256,221.7L191.8,221.7L196,268.2L256,268.2L256,313.5L154.4,313.5M156.4,336.3L202,336.3L205.2,372.6L256,386.2L256,433.6L162.8,407.6" style="fill:rgb(235,235,235);fill-rule:nonzero;"/>
                <path d="M369.6,176.3L255.8,176.3L255.8,221.7L365.4,221.7M361.3,268.2L255.8,268.2L255.8,313.6L311.8,313.6L306.5,372.6L255.8,386.2L255.8,433.4L348.8,407.6" style="fill:white;fill-rule:nonzero;"/>
            </g>
            <g transform="matrix(0.0979462,0,0,0.0979462,68.3659,150.26)">
                <g>
                    <g id="g3013">
                        <path id="polygon2989" d="M349.894,80.496L323.457,376.655L204.622,409.6L86.115,376.702L59.706,80.496L349.894,80.496Z" style="fill:rgb(38,77,228);fill-rule:nonzero;"/>
                        <path id="polygon2991" d="M300.824,357.797L323.416,104.715L204.8,104.715L204.8,384.418L300.824,357.797Z" style="fill:rgb(41,101,241);fill-rule:nonzero;"/>
                        <path id="polygon2993" d="M120.248,214.574L123.504,250.902L204.8,250.902L204.8,214.574L120.248,214.574Z" style="fill:rgb(235,235,235);fill-rule:nonzero;"/>
                        <path id="polygon2995" d="M204.8,141.044L204.674,141.044L113.706,141.044L117.008,177.373L204.8,177.373L204.8,141.044Z" style="fill:rgb(235,235,235);fill-rule:nonzero;"/>
                        <path id="polygon2997" d="M204.8,346.719L204.8,308.922L204.641,308.965L164.182,298.04L161.595,269.066L141.935,269.066L125.127,269.066L130.217,326.107L204.633,346.766L204.8,346.719Z" style="fill:rgb(235,235,235);fill-rule:nonzero;"/>
                        <path id="path2999" d="M128,0L172,0L172,18.4L146.4,18.4L146.4,36.8L172,36.8L172,55.2L128,55.2L128,0Z" style="fill-rule:nonzero;"/>
                        <path id="path3001" d="M180.8,0L224.8,0L224.8,16L199.2,16L199.2,19.2L224.8,19.2L224.8,56L180.8,56L180.8,39.2L206.4,39.2L206.4,36L180.8,36L180.8,0Z" style="fill-rule:nonzero;"/>
                        <path id="path3003" d="M233.6,0L277.6,0L277.6,16L252,16L252,19.2L277.6,19.2L277.6,56L233.6,56L233.6,39.2L259.2,39.2L259.2,36L233.6,36L233.6,0Z" style="fill-rule:nonzero;"/>
                        <path id="polygon3005" d="M249.409,250.902L245.192,298.017L204.674,308.953L204.674,346.748L279.15,326.107L279.696,319.97L288.233,224.329L289.119,214.574L295.678,141.044L204.674,141.044L204.674,177.373L255.865,177.373L252.559,214.574L204.674,214.574L204.674,250.902L249.409,250.902Z" style="fill:white;fill-rule:nonzero;"/>
                    </g>
                </g>
            </g>
        </g>
    </g>
</svg>
