<?xml version="1.0" encoding="UTF-8" standalone="no"?>
<!DOCTYPE svg PUBLIC "-//W3C//DTD SVG 1.1//EN" "http://www.w3.org/Graphics/SVG/1.1/DTD/svg11.dtd">
<svg width="100%" height="100%" viewBox="0 0 352 355" version="1.1" xmlns="http://www.w3.org/2000/svg" xmlns:xlink="http://www.w3.org/1999/xlink" xml:space="preserve" xmlns:serif="http://www.serif.com/" style="fill-rule:evenodd;clip-rule:evenodd;stroke-linejoin:round;stroke-miterlimit:1.41421;">
    <g transform="matrix(1,0,0,1,-332.447,-529.094)">
        <g transform="matrix(0.68989,0,0,0.68989,332.787,530.042)">
            <g transform="matrix(1,0,0,1,127.983,68.6679)">
                <g transform="matrix(1.16378,0,0,1.16378,-140.113,-81.7125)">
                    <path d="M408.272,10.03L408.53,10.032L408.788,10.036L409.045,10.042L409.302,10.049L409.559,10.058L409.815,10.069L410.071,10.081L410.326,10.095L410.581,10.11L410.836,10.127L411.09,10.146L411.344,10.166L411.597,10.187L411.85,10.211L412.102,10.235L412.354,10.262L412.605,10.29L412.856,10.319L413.107,10.35L413.357,10.383L413.606,10.417L413.855,10.453L414.104,10.49L414.352,10.529L414.599,10.569L414.846,10.61L415.093,10.654L415.339,10.698L415.584,10.745L415.829,10.792L416.073,10.842L416.317,10.892L416.56,10.944L416.803,10.998L417.045,11.053L417.287,11.11L417.528,11.168L417.768,11.227L418.008,11.288L418.247,11.351L418.486,11.414L418.724,11.48L418.962,11.546L419.199,11.614L419.435,11.684L419.671,11.755L419.906,11.827L420.141,11.901L420.374,11.976L420.608,12.053L420.84,12.13L421.072,12.21L421.304,12.29L421.534,12.373L421.764,12.456L421.994,12.541L422.222,12.627L422.451,12.714L422.678,12.803L422.905,12.893L423.131,12.985L423.356,13.078L423.581,13.172L423.805,13.268L424.028,13.364L424.25,13.463L424.472,13.562L424.693,13.663L424.914,13.765L425.133,13.868L425.352,13.973L425.57,14.079L425.788,14.186L426.005,14.295L426.221,14.405L426.436,14.516L426.65,14.628L426.864,14.741L427.077,14.856L427.289,14.972L427.5,15.09L427.711,15.208L427.921,15.328L428.129,15.449L428.338,15.571L428.545,15.695L428.752,15.819L428.957,15.945L429.162,16.072L429.366,16.201L429.57,16.33L429.772,16.461L429.974,16.592L430.174,16.726L430.374,16.86L430.573,16.995L430.772,17.132L430.969,17.269L431.165,17.408L431.361,17.548L431.556,17.689L431.749,17.831L431.942,17.975L432.134,18.119L432.326,18.265L432.516,18.412L432.705,18.56L432.894,18.709L433.081,18.859L433.268,19.01L433.453,19.162L433.638,19.315L433.822,19.47L434.005,19.625L434.186,19.782L434.367,19.94L434.547,20.099L434.726,20.258L434.904,20.419L435.082,20.581L435.258,20.744L435.433,20.908L435.607,21.073L435.78,21.239L435.952,21.406L436.123,21.574L436.294,21.743L436.463,21.914L436.631,22.085L436.798,22.257L436.964,22.43L437.129,22.604L437.293,22.779L437.456,22.955L437.618,23.133L437.779,23.311L437.938,23.49L438.097,23.67L438.255,23.851L438.412,24.032L438.567,24.215L438.722,24.399L438.875,24.584L439.027,24.769L439.178,24.956L439.328,25.143L439.477,25.332L439.625,25.521L439.772,25.711L439.918,25.903L440.062,26.095L440.206,26.288L440.348,26.481L440.489,26.676L440.629,26.872L440.768,27.068L440.905,27.265L441.042,27.464L441.177,27.663L441.311,27.863L441.445,28.063L441.576,28.265L441.707,28.467L441.836,28.671L441.965,28.875L442.092,29.08L442.218,29.285L442.342,29.492L442.466,29.699L442.588,29.908L442.709,30.116L442.829,30.326L442.947,30.537L443.065,30.748L443.181,30.96L443.296,31.173L443.409,31.387L443.521,31.601L443.632,31.816L443.742,32.032L443.851,32.249L443.958,32.467L444.064,32.685L444.169,32.904L444.272,33.123L444.374,33.344L444.475,33.565L444.574,33.787L444.673,34.009L444.769,34.232L444.865,34.456L444.959,34.681L445.052,34.906L445.144,35.132L445.234,35.359L445.323,35.586L445.41,35.815L445.496,36.043L445.581,36.273L445.664,36.503L445.747,36.733L445.827,36.965L445.907,37.197L445.984,37.429L446.061,37.663L446.136,37.896L446.21,38.131L446.282,38.366L446.353,38.602L446.423,38.838L446.491,39.075L446.557,39.313L446.623,39.551L446.686,39.79L446.749,40.029L446.81,40.269L446.869,40.509L446.927,40.75L446.984,40.992L447.039,41.234L447.093,41.477L447.145,41.72L447.195,41.964L447.245,42.208L447.292,42.453L447.339,42.698L447.383,42.944L447.427,43.191L447.468,43.438L447.508,43.685L447.547,43.933L447.584,44.182L447.62,44.431L447.654,44.68L447.687,44.93L447.718,45.181L447.747,45.432L447.775,45.683L447.802,45.935L447.826,46.187L447.85,46.44L447.871,46.693L447.891,46.947L447.91,47.201L447.927,47.456L447.942,47.711L447.956,47.966L447.968,48.222L447.979,48.478L447.988,48.735L447.995,48.992L448.001,49.249L448.005,49.507L448.007,49.765L448.008,50.024L448.009,50.024L448.009,365.957L448.008,366.203L448.006,366.448L448.002,366.694L447.997,366.938L447.99,367.183L447.981,367.427L447.971,367.671L447.96,367.914L447.946,368.157L447.932,368.399L447.916,368.641L447.898,368.883L447.879,369.124L447.858,369.365L447.836,369.605L447.813,369.845L447.788,370.084L447.761,370.323L447.733,370.562L447.703,370.8L447.673,371.038L447.64,371.275L447.606,371.512L447.571,371.748L447.534,371.984L447.496,372.219L447.456,372.454L447.415,372.688L447.373,372.922L447.329,373.155L447.283,373.388L447.236,373.621L447.188,373.852L447.139,374.084L447.088,374.314L447.035,374.545L446.981,374.774L446.926,375.004L446.87,375.232L446.812,375.46L446.753,375.688L446.692,375.915L446.63,376.141L446.566,376.367L446.502,376.592L446.436,376.817L446.368,377.041L446.299,377.265L446.229,377.488L446.158,377.71L446.085,377.932L446.011,378.153L445.936,378.374L445.859,378.593L445.781,378.813L445.702,379.032L445.621,379.25L445.539,379.467L445.456,379.684L445.371,379.9L445.286,380.116L445.199,380.331L445.11,380.545L445.021,380.758L444.93,380.971L444.838,381.184L444.744,381.395L444.65,381.606L444.554,381.816L444.457,382.026L444.359,382.235L444.259,382.443L444.158,382.65L444.056,382.857L443.953,383.063L443.849,383.268L443.743,383.473L443.637,383.677L443.529,383.88L443.419,384.082L443.309,384.284L443.198,384.485L443.085,384.685L442.971,384.885L442.856,385.083L442.74,385.281L442.622,385.478L442.504,385.675L442.384,385.87L442.263,386.065L442.141,386.259L442.018,386.453L441.894,386.645L441.769,386.837L441.642,387.028L441.515,387.218L441.386,387.407L441.256,387.595L441.125,387.783L440.993,387.97L440.86,388.156L440.726,388.341L440.591,388.525L440.455,388.708L440.317,388.891L440.179,389.073L440.039,389.254L439.899,389.434L439.757,389.613L439.614,389.791L439.47,389.968L439.326,390.145L439.18,390.321L439.033,390.495L438.885,390.669L438.736,390.842L438.586,391.014L438.435,391.185L438.283,391.355L438.13,391.525L437.977,391.693L437.822,391.861L437.666,392.027L437.509,392.193L437.351,392.357L437.192,392.521L437.032,392.684L436.871,392.845L436.71,393.006L436.547,393.166L436.383,393.325L436.219,393.483L436.053,393.64L435.887,393.796L435.719,393.951L435.551,394.104L435.381,394.257L435.211,394.409L435.04,394.56L434.868,394.71L434.695,394.859L434.521,395.007L434.347,395.154L434.171,395.3L433.994,395.444L433.817,395.588L433.639,395.731L433.46,395.873L433.28,396.013L433.099,396.153L432.917,396.291L432.734,396.429L432.551,396.565L432.367,396.7L432.182,396.834L431.996,396.967L431.809,397.099L431.621,397.23L431.433,397.36L431.244,397.489L431.054,397.616L430.863,397.743L430.671,397.868L430.479,397.992L430.285,398.115L430.091,398.237L429.896,398.358L429.701,398.478L429.504,398.596L429.307,398.714L429.109,398.83L428.911,398.945L428.711,399.059L428.511,399.172L428.31,399.283L428.108,399.393L427.906,399.503L427.703,399.611L427.499,399.717L427.294,399.823L427.089,399.927L426.883,400.03L426.676,400.132L426.469,400.233L426.261,400.333L426.052,400.431L425.842,400.528L425.632,400.624L425.421,400.718L425.21,400.812L424.997,400.904L424.784,400.995L424.571,401.084L424.357,401.173L424.142,401.26L423.926,401.345L423.71,401.43L423.493,401.513L423.276,401.595L423.058,401.676L422.839,401.755L422.619,401.833L422.4,401.91L422.179,401.985L421.958,402.059L421.736,402.132L421.514,402.203L421.291,402.273L421.067,402.342L420.843,402.41L420.618,402.476L420.393,402.54L420.167,402.604L419.941,402.666L419.714,402.727L419.486,402.786L419.258,402.844L419.03,402.9L418.8,402.955L418.571,403.009L418.34,403.062L418.11,403.113L417.878,403.162L417.647,403.21L417.414,403.257L417.181,403.303L416.948,403.347L416.714,403.389L416.48,403.43L416.245,403.47L416.01,403.508L415.774,403.545L415.538,403.58L415.301,403.614L415.064,403.647L414.826,403.677L414.588,403.707L414.349,403.735L414.11,403.762L413.871,403.787L413.631,403.81L413.391,403.832L413.15,403.853L412.909,403.872L412.667,403.89L412.425,403.906L412.183,403.92L411.94,403.934L411.697,403.945L411.453,403.955L411.209,403.964L410.964,403.971L410.72,403.976L410.474,403.98L410.229,403.982L409.983,403.983L48.025,403.983L47.779,403.982L47.534,403.98L47.288,403.976L47.044,403.971L46.799,403.964L46.555,403.955L46.311,403.945L46.068,403.934L45.825,403.92L45.583,403.906L45.341,403.89L45.099,403.872L44.858,403.853L44.617,403.832L44.377,403.81L44.137,403.787L43.898,403.762L43.659,403.735L43.42,403.707L43.182,403.677L42.944,403.647L42.707,403.614L42.47,403.58L42.234,403.545L41.998,403.508L41.763,403.47L41.528,403.43L41.294,403.389L41.06,403.347L40.827,403.303L40.594,403.257L40.361,403.21L40.13,403.162L39.898,403.113L39.668,403.062L39.437,403.009L39.208,402.955L38.978,402.9L38.75,402.844L38.522,402.786L38.294,402.727L38.067,402.666L37.841,402.604L37.615,402.54L37.39,402.476L37.165,402.41L36.941,402.342L36.717,402.273L36.494,402.203L36.272,402.132L36.05,402.059L35.829,401.985L35.608,401.91L35.389,401.833L35.169,401.755L34.95,401.676L34.732,401.595L34.515,401.513L34.298,401.43L34.082,401.345L33.866,401.26L33.651,401.173L33.437,401.084L33.224,400.995L33.011,400.904L32.798,400.812L32.587,400.718L32.376,400.624L32.166,400.528L31.956,400.431L31.747,400.333L31.539,400.233L31.332,400.132L31.125,400.03L30.919,399.927L30.714,399.823L30.509,399.717L30.305,399.611L30.102,399.503L29.9,399.393L29.698,399.283L29.497,399.172L29.297,399.059L29.097,398.945L28.899,398.83L28.701,398.714L28.504,398.596L28.307,398.478L28.112,398.358L27.917,398.237L27.723,398.115L27.529,397.992L27.337,397.868L27.145,397.743L26.954,397.616L26.764,397.489L26.575,397.36L26.387,397.23L26.199,397.099L26.012,396.967L25.826,396.834L25.641,396.7L25.457,396.565L25.274,396.429L25.091,396.291L24.909,396.153L24.728,396.013L24.548,395.873L24.369,395.731L24.191,395.588L24.014,395.444L23.837,395.3L23.661,395.154L23.487,395.007L23.313,394.859L23.14,394.71L22.968,394.56L22.797,394.409L22.627,394.257L22.457,394.104L22.289,393.951L22.121,393.796L21.955,393.64L21.789,393.483L21.625,393.325L21.461,393.166L21.298,393.006L21.137,392.845L20.976,392.684L20.816,392.521L20.657,392.357L20.499,392.193L20.342,392.027L20.186,391.861L20.031,391.693L19.878,391.525L19.725,391.355L19.573,391.185L19.422,391.014L19.272,390.842L19.123,390.669L18.975,390.495L18.828,390.321L18.682,390.145L18.538,389.968L18.394,389.791L18.251,389.613L18.109,389.434L17.969,389.254L17.829,389.073L17.691,388.891L17.553,388.708L17.417,388.525L17.282,388.341L17.148,388.156L17.015,387.97L16.883,387.783L16.752,387.595L16.622,387.407L16.493,387.218L16.366,387.028L16.239,386.837L16.114,386.645L15.99,386.453L15.867,386.259L15.745,386.065L15.624,385.87L15.504,385.675L15.386,385.478L15.268,385.281L15.152,385.083L15.037,384.885L14.923,384.685L14.81,384.485L14.699,384.284L14.589,384.082L14.479,383.88L14.371,383.677L14.265,383.473L14.159,383.268L14.055,383.063L13.952,382.857L13.85,382.65L13.749,382.443L13.649,382.235L13.551,382.026L13.454,381.816L13.358,381.606L13.264,381.395L13.17,381.184L13.078,380.971L12.987,380.758L12.898,380.545L12.809,380.331L12.722,380.116L12.637,379.9L12.552,379.684L12.469,379.467L12.387,379.25L12.306,379.032L12.227,378.813L12.149,378.593L12.072,378.374L11.997,378.153L11.923,377.932L11.85,377.71L11.779,377.488L11.709,377.265L11.64,377.041L11.572,376.817L11.506,376.592L11.442,376.367L11.378,376.141L11.316,375.915L11.255,375.688L11.196,375.46L11.138,375.232L11.082,375.004L11.027,374.774L10.973,374.545L10.92,374.314L10.869,374.084L10.82,373.852L10.772,373.621L10.725,373.388L10.679,373.155L10.635,372.922L10.593,372.688L10.552,372.454L10.512,372.219L10.474,371.984L10.437,371.748L10.402,371.512L10.368,371.275L10.335,371.038L10.305,370.8L10.275,370.562L10.247,370.323L10.22,370.084L10.195,369.845L10.172,369.605L10.15,369.365L10.129,369.124L10.11,368.883L10.092,368.641L10.076,368.399L10.062,368.157L10.048,367.914L10.037,367.671L10.027,367.427L10.018,367.183L10.011,366.938L10.006,366.694L10.002,366.448L10,366.203L9.999,365.957L9.999,50.024L10,49.765L10.002,49.507L10.006,49.249L10.012,48.992L10.019,48.735L10.028,48.478L10.039,48.222L10.051,47.966L10.065,47.711L10.08,47.456L10.097,47.201L10.116,46.947L10.136,46.693L10.157,46.44L10.181,46.187L10.205,45.935L10.232,45.683L10.26,45.432L10.289,45.181L10.32,44.93L10.353,44.68L10.387,44.431L10.423,44.182L10.46,43.933L10.499,43.685L10.539,43.438L10.58,43.191L10.624,42.944L10.668,42.698L10.715,42.453L10.762,42.208L10.812,41.964L10.862,41.72L10.914,41.477L10.968,41.234L11.023,40.992L11.08,40.75L11.138,40.509L11.197,40.269L11.258,40.029L11.321,39.79L11.384,39.551L11.45,39.313L11.516,39.075L11.584,38.838L11.654,38.602L11.725,38.366L11.797,38.131L11.871,37.896L11.946,37.663L12.023,37.429L12.1,37.197L12.18,36.965L12.26,36.733L12.343,36.503L12.426,36.273L12.511,36.043L12.597,35.815L12.684,35.586L12.773,35.359L12.863,35.132L12.955,34.906L13.048,34.681L13.142,34.456L13.238,34.232L13.334,34.009L13.433,33.787L13.532,33.565L13.633,33.344L13.735,33.123L13.838,32.904L13.943,32.685L14.049,32.467L14.156,32.249L14.265,32.032L14.375,31.816L14.486,31.601L14.598,31.387L14.711,31.173L14.826,30.96L14.942,30.748L15.06,30.537L15.178,30.326L15.298,30.116L15.419,29.908L15.541,29.699L15.665,29.492L15.789,29.285L15.915,29.08L16.042,28.875L16.171,28.671L16.3,28.467L16.431,28.265L16.562,28.063L16.696,27.863L16.83,27.663L16.965,27.464L17.102,27.265L17.239,27.068L17.378,26.872L17.518,26.676L17.659,26.481L17.801,26.288L17.945,26.095L18.089,25.903L18.235,25.711L18.382,25.521L18.53,25.332L18.679,25.143L18.829,24.956L18.98,24.769L19.132,24.584L19.285,24.399L19.44,24.215L19.595,24.032L19.752,23.851L19.91,23.67L20.069,23.49L20.228,23.311L20.389,23.133L20.551,22.955L20.714,22.779L20.878,22.604L21.043,22.43L21.209,22.257L21.376,22.085L21.544,21.914L21.714,21.743L21.884,21.574L22.055,21.406L22.227,21.239L22.4,21.073L22.574,20.908L22.749,20.744L22.925,20.581L23.103,20.419L23.281,20.258L23.46,20.099L23.64,19.94L23.821,19.782L24.002,19.625L24.185,19.47L24.369,19.315L24.554,19.162L24.739,19.01L24.926,18.859L25.113,18.709L25.302,18.56L25.491,18.412L25.681,18.265L25.873,18.119L26.065,17.975L26.258,17.831L26.451,17.689L26.646,17.548L26.842,17.408L27.038,17.269L27.235,17.132L27.434,16.995L27.633,16.86L27.833,16.726L28.033,16.592L28.235,16.461L28.437,16.33L28.641,16.201L28.845,16.072L29.05,15.945L29.255,15.819L29.462,15.695L29.669,15.571L29.878,15.449L30.086,15.328L30.296,15.208L30.507,15.09L30.718,14.972L30.93,14.856L31.143,14.741L31.357,14.628L31.571,14.516L31.786,14.405L32.002,14.295L32.219,14.186L32.437,14.079L32.655,13.973L32.874,13.868L33.093,13.765L33.314,13.663L33.535,13.562L33.757,13.463L33.979,13.364L34.202,13.268L34.426,13.172L34.651,13.078L34.876,12.985L35.102,12.893L35.329,12.803L35.556,12.714L35.785,12.627L36.013,12.541L36.243,12.456L36.473,12.373L36.703,12.29L36.935,12.21L37.167,12.13L37.399,12.053L37.633,11.976L37.866,11.901L38.101,11.827L38.336,11.755L38.572,11.684L38.808,11.614L39.045,11.546L39.283,11.48L39.521,11.414L39.76,11.351L39.999,11.288L40.239,11.227L40.479,11.168L40.72,11.11L40.962,11.053L41.204,10.998L41.447,10.944L41.69,10.892L41.934,10.842L42.178,10.792L42.423,10.745L42.668,10.698L42.914,10.654L43.161,10.61L43.408,10.569L43.655,10.529L43.903,10.49L44.152,10.453L44.401,10.417L44.65,10.383L44.9,10.35L45.151,10.319L45.402,10.29L45.653,10.262L45.905,10.235L46.157,10.211L46.41,10.187L46.663,10.166L46.917,10.146L47.171,10.127L47.426,10.11L47.681,10.095L47.936,10.081L48.192,10.069L48.448,10.058L48.705,10.049L48.962,10.042L49.219,10.036L49.477,10.032L49.735,10.03L49.994,10.029L408.013,10.029L408.272,10.03ZM50.005,16.672L49.777,16.672L49.561,16.675L49.346,16.678L49.13,16.683L48.915,16.689L48.7,16.696L48.485,16.705L48.272,16.715L48.059,16.727L47.846,16.74L47.633,16.754L47.421,16.769L47.209,16.786L46.998,16.804L46.786,16.824L46.576,16.844L46.366,16.866L46.157,16.89L45.947,16.914L45.737,16.94L45.529,16.967L45.322,16.996L45.114,17.025L44.907,17.056L44.7,17.089L44.494,17.122L44.287,17.157L44.082,17.193L43.878,17.23L43.673,17.269L43.469,17.309L43.265,17.349L43.063,17.392L42.859,17.435L42.657,17.48L42.456,17.526L42.255,17.573L42.054,17.621L41.854,17.671L41.654,17.721L41.455,17.773L41.256,17.826L41.057,17.881L40.86,17.936L40.663,17.993L40.466,18.051L40.269,18.11L40.073,18.17L39.879,18.231L39.685,18.294L39.49,18.358L39.296,18.423L39.102,18.489L38.91,18.556L38.718,18.624L38.526,18.694L38.336,18.764L38.146,18.836L37.955,18.909L37.766,18.983L37.576,19.058L37.389,19.134L37.201,19.212L37.014,19.29L36.828,19.37L36.642,19.45L36.457,19.532L36.271,19.615L36.088,19.699L35.904,19.784L35.721,19.87L35.538,19.958L35.356,20.046L35.175,20.135L34.995,20.225L34.816,20.316L34.635,20.41L34.456,20.503L34.278,20.598L34.101,20.693L33.924,20.79L33.749,20.888L33.573,20.987L33.397,21.087L33.224,21.187L33.05,21.289L32.877,21.392L32.704,21.497L32.533,21.601L32.363,21.707L32.192,21.814L32.023,21.922L31.854,22.031L31.686,22.141L31.518,22.252L31.351,22.364L31.185,22.477L31.02,22.591L30.855,22.706L30.691,22.822L30.529,22.938L30.366,23.056L30.204,23.175L30.043,23.295L29.883,23.415L29.723,23.537L29.565,23.659L29.406,23.783L29.249,23.907L29.093,24.032L28.937,24.158L28.781,24.286L28.627,24.414L28.474,24.542L28.322,24.672L28.17,24.803L28.019,24.935L27.868,25.067L27.719,25.201L27.57,25.335L27.423,25.47L27.275,25.606L27.129,25.743L26.984,25.881L26.839,26.02L26.696,26.159L26.553,26.3L26.411,26.441L26.27,26.583L26.129,26.726L25.989,26.869L25.851,27.013L25.713,27.159L25.576,27.306L25.44,27.453L25.305,27.601L25.17,27.749L25.037,27.898L24.905,28.048L24.773,28.2L24.642,28.352L24.512,28.504L24.384,28.658L24.255,28.812L24.129,28.967L24.002,29.122L23.877,29.279L23.752,29.436L23.629,29.594L23.507,29.753L23.385,29.913L23.265,30.073L23.145,30.234L23.026,30.396L22.908,30.558L22.791,30.722L22.676,30.885L22.561,31.05L22.447,31.216L22.334,31.381L22.222,31.548L22.111,31.716L22.001,31.884L21.892,32.052L21.784,32.222L21.678,32.392L21.571,32.564L21.466,32.735L21.362,32.907L21.259,33.08L21.157,33.254L21.056,33.428L20.957,33.602L20.858,33.778L20.76,33.955L20.664,34.131L20.568,34.309L20.473,34.487L20.379,34.665L20.287,34.845L20.195,35.025L20.105,35.205L20.016,35.386L19.927,35.569L19.84,35.751L19.754,35.934L19.669,36.117L19.585,36.301L19.502,36.487L19.42,36.672L19.34,36.857L19.26,37.044L19.182,37.231L19.104,37.419L19.028,37.607L18.953,37.796L18.879,37.985L18.806,38.175L18.734,38.366L18.664,38.557L18.594,38.748L18.526,38.94L18.459,39.133L18.393,39.326L18.328,39.519L18.264,39.714L18.201,39.909L18.14,40.104L18.08,40.3L18.021,40.496L17.963,40.693L17.906,40.89L17.851,41.088L17.797,41.286L17.743,41.485L17.691,41.684L17.641,41.883L17.591,42.084L17.543,42.285L17.496,42.486L17.45,42.688L17.405,42.89L17.362,43.093L17.319,43.296L17.278,43.499L17.239,43.703L17.2,43.908L17.163,44.112L17.127,44.318L17.092,44.523L17.059,44.73L17.026,44.937L16.995,45.144L16.966,45.351L16.937,45.559L16.91,45.768L16.884,45.977L16.86,46.186L16.836,46.396L16.814,46.606L16.794,46.817L16.774,47.027L16.756,47.239L16.739,47.451L16.724,47.663L16.71,47.875L16.697,48.089L16.685,48.302L16.675,48.516L16.666,48.73L16.659,48.945L16.653,49.16L16.648,49.375L16.645,49.591L16.642,49.808L16.642,50.035L16.642,365.946L16.642,366.161L16.644,366.365L16.648,366.567L16.652,366.77L16.658,366.973L16.665,367.175L16.673,367.376L16.683,367.578L16.694,367.778L16.706,367.979L16.719,368.179L16.733,368.378L16.749,368.578L16.766,368.777L16.785,368.975L16.804,369.174L16.825,369.372L16.847,369.569L16.87,369.766L16.894,369.963L16.92,370.159L16.947,370.354L16.974,370.549L17.004,370.744L17.034,370.939L17.066,371.133L17.098,371.327L17.132,371.52L17.167,371.713L17.203,371.905L17.241,372.097L17.279,372.289L17.319,372.48L17.36,372.671L17.402,372.861L17.445,373.051L17.489,373.239L17.535,373.428L17.582,373.617L17.629,373.805L17.678,373.993L17.728,374.179L17.779,374.366L17.832,374.552L17.885,374.738L17.939,374.923L17.995,375.107L18.052,375.292L18.109,375.475L18.168,375.658L18.228,375.842L18.289,376.024L18.351,376.205L18.415,376.387L18.479,376.568L18.544,376.748L18.611,376.927L18.678,377.106L18.747,377.285L18.816,377.463L18.887,377.641L18.959,377.818L19.032,377.995L19.105,378.171L19.18,378.346L19.256,378.521L19.333,378.695L19.411,378.87L19.49,379.043L19.57,379.215L19.651,379.387L19.733,379.559L19.816,379.731L19.9,379.901L19.985,380.07L20.072,380.24L20.158,380.409L20.246,380.577L20.336,380.745L20.426,380.912L20.517,381.078L20.608,381.243L20.702,381.409L20.796,381.573L20.891,381.737L20.986,381.901L21.083,382.063L21.181,382.226L21.28,382.387L21.38,382.548L21.48,382.708L21.582,382.867L21.684,383.026L21.788,383.184L21.892,383.342L21.997,383.499L22.104,383.655L22.211,383.811L22.319,383.966L22.428,384.12L22.538,384.273L22.649,384.426L22.761,384.579L22.873,384.73L22.987,384.881L23.101,385.031L23.216,385.18L23.333,385.329L23.45,385.477L23.567,385.624L23.686,385.771L23.806,385.917L23.926,386.062L24.047,386.206L24.17,386.35L24.293,386.493L24.417,386.635L24.541,386.776L24.667,386.917L24.793,387.057L24.92,387.196L25.048,387.334L25.177,387.472L25.307,387.609L25.438,387.745L25.569,387.88L25.701,388.014L25.833,388.148L25.968,388.281L26.102,388.413L26.237,388.544L26.373,388.675L26.511,388.805L26.648,388.934L26.786,389.062L26.925,389.189L27.065,389.315L27.206,389.441L27.348,389.566L27.489,389.689L27.632,389.812L27.776,389.934L27.92,390.056L28.065,390.177L28.211,390.296L28.358,390.415L28.505,390.532L28.653,390.65L28.802,390.766L28.951,390.881L29.101,390.995L29.252,391.109L29.404,391.222L29.556,391.333L29.708,391.444L29.862,391.554L30.016,391.663L30.171,391.771L30.327,391.878L30.483,391.984L30.64,392.09L30.797,392.194L30.956,392.298L31.114,392.4L31.274,392.502L31.434,392.602L31.595,392.702L31.756,392.801L31.919,392.899L32.082,392.996L32.245,393.091L32.409,393.187L32.573,393.28L32.738,393.373L32.904,393.465L33.071,393.557L33.237,393.646L33.405,393.735L33.574,393.824L33.742,393.911L33.911,393.997L34.081,394.082L34.252,394.166L34.423,394.249L34.594,394.331L34.766,394.412L34.939,394.492L35.113,394.571L35.287,394.649L35.461,394.726L35.636,394.802L35.811,394.877L35.988,394.951L36.164,395.023L36.341,395.095L36.519,395.166L36.696,395.235L36.876,395.304L37.055,395.371L37.235,395.438L37.415,395.503L37.595,395.567L37.777,395.631L37.958,395.693L38.141,395.754L38.323,395.814L38.506,395.872L38.69,395.93L38.875,395.987L39.06,396.043L39.244,396.097L39.429,396.15L39.616,396.203L39.803,396.254L39.989,396.304L40.177,396.353L40.365,396.4L40.554,396.447L40.742,396.492L40.931,396.537L41.121,396.58L41.312,396.622L41.503,396.663L41.693,396.702L41.885,396.741L42.077,396.779L42.268,396.815L42.462,396.85L42.656,396.884L42.849,396.917L43.043,396.948L43.237,396.978L43.432,397.007L43.628,397.035L43.823,397.062L44.019,397.088L44.216,397.112L44.414,397.135L44.611,397.157L44.808,397.178L45.006,397.197L45.205,397.216L45.404,397.233L45.603,397.249L45.802,397.263L46.003,397.276L46.204,397.288L46.404,397.299L46.606,397.309L46.808,397.317L47.01,397.324L47.212,397.33L47.414,397.334L47.618,397.338L47.821,397.34L48.035,397.34L409.973,397.34L410.187,397.34L410.39,397.338L410.594,397.334L410.796,397.33L410.998,397.324L411.2,397.317L411.402,397.309L411.604,397.299L411.804,397.288L412.005,397.276L412.206,397.263L412.405,397.249L412.604,397.233L412.803,397.216L413.002,397.197L413.2,397.178L413.397,397.157L413.594,397.135L413.792,397.112L413.989,397.088L414.185,397.062L414.38,397.035L414.576,397.007L414.771,396.978L414.965,396.948L415.159,396.917L415.352,396.884L415.546,396.85L415.74,396.815L415.931,396.779L416.124,396.741L416.315,396.703L416.505,396.663L416.696,396.622L416.887,396.58L417.077,396.537L417.266,396.492L417.454,396.447L417.643,396.4L417.831,396.353L418.019,396.304L418.205,396.254L418.392,396.203L418.579,396.15L418.764,396.097L418.948,396.043L419.133,395.987L419.318,395.93L419.502,395.872L419.684,395.814L419.867,395.754L420.05,395.693L420.231,395.631L420.413,395.567L420.593,395.503L420.774,395.438L420.953,395.371L421.132,395.304L421.312,395.235L421.489,395.166L421.667,395.095L421.844,395.023L422.02,394.951L422.197,394.877L422.372,394.802L422.547,394.726L422.721,394.649L422.895,394.571L423.069,394.492L423.242,394.412L423.413,394.331L423.585,394.249L423.756,394.166L423.927,394.082L424.097,393.997L424.266,393.91L424.434,393.824L424.603,393.735L424.771,393.646L424.937,393.557L425.104,393.465L425.27,393.373L425.435,393.28L425.599,393.187L425.763,393.091L425.926,392.996L426.089,392.899L426.252,392.801L426.413,392.702L426.574,392.602L426.734,392.502L426.893,392.4L427.052,392.298L427.211,392.194L427.368,392.09L427.525,391.985L427.681,391.878L427.837,391.771L427.992,391.663L428.146,391.554L428.3,391.444L428.452,391.333L428.604,391.222L428.756,391.109L428.907,390.995L429.057,390.881L429.206,390.766L429.355,390.649L429.504,390.532L429.65,390.415L429.797,390.296L429.943,390.177L430.088,390.056L430.232,389.935L430.376,389.813L430.519,389.689L430.661,389.566L430.802,389.441L430.943,389.315L431.083,389.189L431.222,389.062L431.36,388.934L431.497,388.805L431.635,388.675L431.772,388.544L431.906,388.413L432.04,388.281L432.174,388.148L432.307,388.014L432.439,387.88L432.57,387.746L432.701,387.609L432.831,387.471L432.96,387.334L433.088,387.196L433.214,387.058L433.341,386.917L433.467,386.776L433.592,386.635L433.715,386.493L433.839,386.35L433.961,386.206L434.082,386.062L434.203,385.917L434.322,385.771L434.441,385.624L434.558,385.478L434.675,385.329L434.792,385.18L434.907,385.031L435.021,384.881L435.135,384.73L435.248,384.578L435.359,384.426L435.47,384.274L435.579,384.12L435.689,383.966L435.797,383.81L435.904,383.655L436.011,383.499L436.116,383.342L436.22,383.185L436.324,383.026L436.426,382.867L436.528,382.708L436.628,382.548L436.728,382.387L436.827,382.226L436.925,382.063L437.022,381.9L437.117,381.737L437.212,381.574L437.306,381.409L437.4,381.243L437.491,381.078L437.582,380.911L437.672,380.745L437.761,380.577L437.85,380.408L437.936,380.24L438.023,380.071L438.108,379.901L438.192,379.73L438.275,379.559L438.357,379.387L438.438,379.216L438.518,379.043L438.597,378.869L438.675,378.695L438.752,378.521L438.828,378.346L438.903,378.171L438.977,377.994L439.049,377.818L439.121,377.641L439.192,377.463L439.261,377.286L439.33,377.106L439.397,376.927L439.464,376.748L439.529,376.567L439.593,376.387L439.657,376.205L439.719,376.024L439.78,375.841L439.84,375.658L439.898,375.476L439.956,375.292L440.013,375.107L440.069,374.922L440.123,374.738L440.176,374.553L440.229,374.366L440.28,374.179L440.33,373.993L440.379,373.805L440.426,373.617L440.473,373.428L440.518,373.24L440.563,373.051L440.606,372.861L440.648,372.67L440.689,372.479L440.729,372.289L440.767,372.098L440.805,371.905L440.841,371.714L440.876,371.52L440.91,371.326L440.943,371.133L440.974,370.939L441.004,370.745L441.033,370.55L441.062,370.354L441.088,370.159L441.114,369.963L441.138,369.766L441.161,369.568L441.183,369.371L441.204,369.174L441.223,368.976L441.242,368.777L441.259,368.578L441.275,368.379L441.289,368.18L441.302,367.979L441.314,367.778L441.325,367.578L441.335,367.376L441.343,367.174L441.35,366.972L441.356,366.77L441.36,366.568L441.364,366.364L441.366,366.161L441.366,365.947L441.366,50.05L441.365,50.045L441.365,49.807L441.363,49.591L441.359,49.376L441.354,49.16L441.348,48.945L441.341,48.731L441.332,48.516L441.322,48.302L441.31,48.089L441.297,47.875L441.283,47.662L441.268,47.452L441.251,47.239L441.233,47.027L441.213,46.816L441.193,46.605L441.171,46.396L441.147,46.187L441.123,45.977L441.097,45.768L441.07,45.559L441.041,45.351L441.012,45.144L440.981,44.937L440.948,44.73L440.915,44.524L440.88,44.318L440.844,44.112L440.807,43.907L440.768,43.703L440.728,43.499L440.688,43.296L440.645,43.093L440.602,42.89L440.557,42.688L440.511,42.486L440.464,42.284L440.416,42.084L440.366,41.884L440.316,41.684L440.264,41.485L440.211,41.286L440.156,41.088L440.101,40.89L440.044,40.693L439.986,40.496L439.927,40.3L439.867,40.104L439.805,39.908L439.743,39.714L439.679,39.52L439.614,39.326L439.548,39.133L439.481,38.94L439.413,38.748L439.343,38.557L439.273,38.366L439.201,38.175L439.128,37.985L439.054,37.796L438.979,37.607L438.903,37.419L438.825,37.231L438.747,37.044L438.667,36.857L438.587,36.672L438.505,36.487L438.422,36.301L438.338,36.117L438.253,35.934L438.167,35.751L438.08,35.569L437.991,35.386L437.902,35.205L437.812,35.025L437.72,34.845L437.627,34.665L437.534,34.487L437.44,34.309L437.343,34.131L437.247,33.955L437.149,33.779L437.05,33.602L436.95,33.428L436.849,33.253L436.748,33.08L436.645,32.907L436.541,32.736L436.436,32.563L436.329,32.392L436.223,32.222L436.115,32.053L436.006,31.884L435.896,31.716L435.785,31.548L435.673,31.381L435.56,31.215L435.446,31.05L435.331,30.885L435.215,30.721L435.099,30.559L434.981,30.396L434.862,30.233L434.742,30.073L434.622,29.913L434.501,29.754L434.378,29.595L434.255,29.436L434.13,29.279L434.005,29.122L433.878,28.967L433.752,28.812L433.623,28.658L433.494,28.504L433.365,28.352L433.234,28.2L433.102,28.048L432.969,27.898L432.836,27.749L432.702,27.601L432.567,27.453L432.431,27.306L432.294,27.159L432.156,27.013L432.017,26.869L431.879,26.726L431.738,26.583L431.596,26.441L431.454,26.299L431.311,26.159L431.168,26.02L431.023,25.881L430.878,25.743L430.731,25.606L430.584,25.47L430.437,25.335L430.288,25.201L430.139,25.067L429.988,24.935L429.837,24.803L429.686,24.672L429.532,24.542L429.379,24.413L429.226,24.286L429.07,24.159L428.914,24.032L428.758,23.907L428.601,23.783L428.442,23.659L428.284,23.537L428.124,23.415L427.964,23.295L427.804,23.175L427.641,23.056L427.478,22.938L427.316,22.822L427.152,22.706L426.987,22.591L426.822,22.477L426.656,22.364L426.489,22.252L426.321,22.141L426.153,22.031L425.984,21.922L425.815,21.814L425.645,21.707L425.474,21.601L425.303,21.497L425.13,21.392L424.957,21.289L424.783,21.187L424.609,21.087L424.434,20.987L424.258,20.888L424.082,20.79L423.906,20.693L423.729,20.598L423.55,20.503L423.372,20.409L423.192,20.317L423.012,20.225L422.832,20.135L422.651,20.046L422.469,19.958L422.286,19.87L422.103,19.784L421.919,19.699L421.736,19.615L421.551,19.532L421.365,19.45L421.179,19.37L420.993,19.29L420.806,19.212L420.618,19.134L420.43,19.058L420.241,18.983L420.052,18.909L419.861,18.836L419.671,18.764L419.481,18.694L419.289,18.624L419.097,18.556L418.905,18.489L418.711,18.423L418.517,18.358L418.322,18.294L418.128,18.231L417.933,18.17L417.738,18.11L417.541,18.051L417.344,17.993L417.147,17.936L416.95,17.881L416.751,17.826L416.552,17.773L416.353,17.721L416.153,17.671L415.953,17.621L415.752,17.573L415.551,17.526L415.35,17.48L415.148,17.435L414.945,17.392L414.742,17.35L414.538,17.309L414.334,17.269L414.129,17.23L413.925,17.193L413.72,17.157L413.513,17.122L413.307,17.089L413.1,17.056L412.893,17.025L412.685,16.996L412.478,16.967L412.27,16.94L412.06,16.914L411.85,16.89L411.641,16.866L411.432,16.844L411.221,16.824L411.009,16.804L410.798,16.786L410.586,16.769L410.374,16.754L410.161,16.74L409.948,16.727L409.735,16.715L409.522,16.705L409.307,16.696L409.092,16.689L408.877,16.683L408.661,16.678L408.446,16.675L408.23,16.672L408.002,16.672L50.005,16.672Z" style="fill:rgb(119,174,204);"/>
                </g>
                <g transform="matrix(1.16378,0,0,1.16378,-140.113,-81.7125)">
                    <path d="M408.271,10.029L408.529,10.031L408.787,10.035L409.044,10.041L409.301,10.048L409.558,10.057L409.814,10.068L410.07,10.08L410.326,10.094L410.581,10.109L410.835,10.126L411.089,10.145L411.343,10.165L411.596,10.186L411.849,10.21L412.101,10.234L412.353,10.261L412.605,10.289L412.856,10.318L413.106,10.349L413.356,10.382L413.605,10.416L413.854,10.452L414.103,10.489L414.351,10.528L414.598,10.568L414.845,10.609L415.092,10.653L415.338,10.697L415.583,10.744L415.828,10.791L416.073,10.841L416.316,10.891L416.56,10.943L416.802,10.997L417.045,11.052L417.286,11.109L417.527,11.167L417.768,11.226L418.008,11.287L418.247,11.349L418.486,11.413L418.724,11.479L418.961,11.545L419.198,11.613L419.435,11.683L419.67,11.754L419.906,11.826L420.14,11.9L420.374,11.975L420.607,12.051L420.84,12.129L421.072,12.209L421.303,12.289L421.534,12.371L421.764,12.455L421.993,12.54L422.222,12.626L422.45,12.713L422.677,12.802L422.904,12.892L423.13,12.984L423.356,13.077L423.58,13.171L423.804,13.266L424.027,13.363L424.25,13.462L424.472,13.561L424.693,13.662L424.913,13.764L425.133,13.867L425.352,13.972L425.57,14.078L425.787,14.185L426.004,14.294L426.22,14.403L426.435,14.514L426.65,14.627L426.863,14.74L427.076,14.855L427.289,14.971L427.5,15.089L427.71,15.207L427.92,15.327L428.129,15.448L428.337,15.57L428.545,15.694L428.751,15.818L428.957,15.944L429.162,16.071L429.366,16.199L429.569,16.329L429.772,16.459L429.973,16.591L430.174,16.724L430.374,16.858L430.573,16.994L430.771,17.13L430.969,17.268L431.165,17.407L431.361,17.547L431.555,17.688L431.749,17.83L431.942,17.974L432.134,18.118L432.325,18.264L432.516,18.41L432.705,18.558L432.893,18.707L433.081,18.857L433.267,19.009L433.453,19.161L433.638,19.314L433.822,19.469L434.004,19.624L434.186,19.781L434.367,19.939L434.547,20.097L434.726,20.257L434.904,20.418L435.081,20.58L435.258,20.743L435.433,20.907L435.607,21.072L435.78,21.238L435.952,21.405L436.123,21.573L436.293,21.742L436.463,21.912L436.631,22.084L436.798,22.256L436.964,22.429L437.129,22.603L437.293,22.778L437.456,22.954L437.618,23.131L437.779,23.309L437.938,23.488L438.097,23.668L438.255,23.849L438.411,24.031L438.567,24.214L438.721,24.398L438.875,24.582L439.027,24.768L439.178,24.955L439.328,25.142L439.477,25.331L439.625,25.52L439.772,25.71L439.918,25.901L440.062,26.093L440.206,26.286L440.348,26.48L440.489,26.675L440.629,26.87L440.768,27.067L440.905,27.264L441.042,27.462L441.177,27.661L441.311,27.861L441.444,28.062L441.576,28.264L441.707,28.466L441.836,28.669L441.965,28.874L442.092,29.079L442.218,29.284L442.342,29.491L442.466,29.698L442.588,29.906L442.709,30.115L442.829,30.325L442.947,30.536L443.065,30.747L443.181,30.959L443.295,31.172L443.409,31.386L443.521,31.6L443.632,31.815L443.742,32.031L443.851,32.248L443.958,32.466L444.064,32.684L444.169,32.903L444.272,33.122L444.374,33.343L444.475,33.564L444.574,33.786L444.673,34.008L444.769,34.231L444.865,34.455L444.959,34.68L445.052,34.905L445.144,35.131L445.234,35.358L445.323,35.586L445.41,35.814L445.496,36.042L445.581,36.272L445.664,36.502L445.747,36.732L445.827,36.964L445.907,37.196L445.984,37.428L446.061,37.662L446.136,37.896L446.21,38.13L446.282,38.365L446.353,38.601L446.423,38.837L446.491,39.074L446.557,39.312L446.623,39.55L446.686,39.789L446.749,40.028L446.81,40.268L446.869,40.508L446.927,40.75L446.984,40.991L447.039,41.233L447.093,41.476L447.145,41.719L447.195,41.963L447.245,42.208L447.292,42.452L447.339,42.698L447.383,42.944L447.427,43.19L447.468,43.437L447.508,43.685L447.547,43.933L447.584,44.181L447.62,44.43L447.654,44.68L447.687,44.93L447.718,45.18L447.747,45.431L447.775,45.683L447.802,45.935L447.826,46.187L447.85,46.44L447.871,46.693L447.891,46.947L447.91,47.201L447.927,47.455L447.942,47.71L447.956,47.966L447.968,48.222L447.979,48.478L447.988,48.735L447.995,48.992L448.001,49.249L448.005,49.507L448.007,49.765L448.008,50.024L448.008,98.087L9.999,98.087L9.999,50.023L10,49.764L10.002,49.506L10.006,49.248L10.012,48.991L10.019,48.734L10.028,48.477L10.039,48.221L10.051,47.965L10.065,47.71L10.08,47.455L10.097,47.2L10.116,46.946L10.136,46.692L10.157,46.439L10.181,46.186L10.205,45.934L10.232,45.682L10.26,45.431L10.289,45.18L10.32,44.929L10.353,44.679L10.387,44.43L10.423,44.181L10.46,43.932L10.499,43.684L10.539,43.437L10.58,43.19L10.624,42.943L10.668,42.697L10.715,42.452L10.762,42.207L10.812,41.963L10.862,41.719L10.914,41.476L10.968,41.233L11.023,40.991L11.08,40.749L11.138,40.508L11.197,40.268L11.258,40.028L11.32,39.789L11.384,39.55L11.45,39.312L11.516,39.074L11.584,38.837L11.654,38.601L11.725,38.365L11.797,38.13L11.871,37.895L11.946,37.662L12.022,37.428L12.1,37.196L12.18,36.964L12.26,36.732L12.342,36.502L12.426,36.272L12.511,36.042L12.597,35.814L12.684,35.585L12.773,35.358L12.863,35.131L12.955,34.905L13.048,34.68L13.142,34.455L13.237,34.231L13.334,34.008L13.432,33.786L13.532,33.564L13.633,33.343L13.735,33.122L13.838,32.903L13.943,32.684L14.049,32.466L14.156,32.248L14.265,32.031L14.374,31.815L14.485,31.6L14.598,31.386L14.711,31.172L14.826,30.959L14.942,30.747L15.059,30.536L15.178,30.325L15.298,30.115L15.419,29.907L15.541,29.698L15.664,29.491L15.789,29.284L15.915,29.079L16.042,28.874L16.17,28.67L16.3,28.466L16.43,28.264L16.562,28.062L16.695,27.862L16.829,27.662L16.965,27.463L17.101,27.264L17.239,27.067L17.378,26.871L17.518,26.675L17.659,26.48L17.801,26.287L17.944,26.094L18.089,25.902L18.235,25.71L18.381,25.52L18.529,25.331L18.678,25.142L18.828,24.955L18.98,24.768L19.132,24.583L19.285,24.398L19.44,24.214L19.595,24.031L19.752,23.85L19.909,23.669L20.068,23.489L20.228,23.31L20.389,23.132L20.551,22.954L20.714,22.778L20.878,22.603L21.043,22.429L21.209,22.256L21.376,22.084L21.544,21.913L21.713,21.742L21.883,21.573L22.054,21.405L22.227,21.238L22.4,21.072L22.574,20.907L22.749,20.743L22.925,20.58L23.102,20.418L23.28,20.257L23.459,20.098L23.639,19.939L23.82,19.781L24.002,19.624L24.185,19.469L24.369,19.314L24.553,19.161L24.739,19.009L24.926,18.858L25.113,18.708L25.301,18.559L25.491,18.411L25.681,18.264L25.872,18.118L26.064,17.974L26.257,17.83L26.451,17.688L26.646,17.547L26.841,17.407L27.038,17.268L27.235,17.131L27.433,16.994L27.632,16.859L27.832,16.725L28.033,16.591L28.235,16.46L28.437,16.329L28.64,16.2L28.844,16.071L29.049,15.944L29.255,15.818L29.462,15.694L29.669,15.57L29.877,15.448L30.086,15.327L30.296,15.207L30.506,15.089L30.718,14.971L30.93,14.855L31.143,14.74L31.356,14.627L31.571,14.515L31.786,14.404L32.002,14.294L32.219,14.185L32.436,14.078L32.654,13.972L32.873,13.867L33.093,13.764L33.313,13.662L33.534,13.561L33.756,13.462L33.979,13.363L34.202,13.267L34.426,13.171L34.651,13.077L34.876,12.984L35.102,12.892L35.329,12.802L35.556,12.713L35.784,12.626L36.013,12.54L36.242,12.455L36.472,12.372L36.703,12.289L36.934,12.209L37.166,12.129L37.399,12.052L37.632,11.975L37.866,11.9L38.101,11.826L38.336,11.754L38.571,11.683L38.808,11.613L39.045,11.545L39.282,11.479L39.52,11.413L39.759,11.35L39.999,11.287L40.238,11.226L40.479,11.167L40.72,11.109L40.962,11.052L41.204,10.997L41.446,10.943L41.69,10.891L41.934,10.841L42.178,10.791L42.423,10.744L42.668,10.697L42.914,10.653L43.161,10.609L43.408,10.568L43.655,10.528L43.903,10.489L44.152,10.452L44.401,10.416L44.65,10.382L44.9,10.349L45.15,10.318L45.401,10.289L45.653,10.261L45.905,10.234L46.157,10.21L46.41,10.186L46.663,10.165L46.917,10.145L47.171,10.126L47.425,10.109L47.68,10.094L47.936,10.08L48.192,10.068L48.448,10.057L48.705,10.048L48.962,10.041L49.219,10.035L49.477,10.031L49.735,10.029L49.994,10.028L408.012,10.028L408.271,10.029ZM50.004,16.671L49.777,16.671L49.561,16.674L49.345,16.677L49.13,16.682L48.916,16.688L48.7,16.695L48.485,16.704L48.272,16.714L48.059,16.726L47.846,16.739L47.633,16.753L47.42,16.768L47.209,16.785L46.997,16.803L46.786,16.823L46.576,16.843L46.366,16.865L46.156,16.889L45.946,16.913L45.738,16.939L45.529,16.966L45.322,16.995L45.114,17.024L44.907,17.055L44.7,17.088L44.494,17.121L44.287,17.156L44.082,17.192L43.878,17.229L43.672,17.268L43.469,17.307L43.265,17.349L43.062,17.391L42.86,17.434L42.657,17.479L42.456,17.525L42.255,17.572L42.054,17.62L41.854,17.67L41.654,17.72L41.454,17.773L41.256,17.825L41.058,17.88L40.859,17.936L40.662,17.992L40.466,18.05L40.269,18.109L40.073,18.169L39.879,18.23L39.683,18.293L39.489,18.357L39.296,18.421L39.103,18.488L38.909,18.555L38.718,18.623L38.526,18.693L38.336,18.763L38.145,18.835L37.955,18.908L37.765,18.982L37.576,19.057L37.388,19.133L37.201,19.211L37.014,19.289L36.827,19.369L36.641,19.449L36.456,19.531L36.272,19.614L36.087,19.698L35.903,19.783L35.72,19.869L35.538,19.956L35.357,20.044L35.175,20.134L34.995,20.224L34.814,20.316L34.635,20.408L34.457,20.502L34.278,20.597L34.101,20.692L33.924,20.789L33.748,20.887L33.572,20.986L33.397,21.086L33.224,21.186L33.05,21.288L32.877,21.391L32.704,21.496L32.533,21.6L32.362,21.706L32.192,21.813L32.022,21.921L31.853,22.03L31.685,22.14L31.517,22.251L31.351,22.363L31.185,22.476L31.02,22.59L30.855,22.705L30.691,22.821L30.527,22.938L30.366,23.055L30.204,23.174L30.042,23.294L29.882,23.414L29.723,23.536L29.564,23.658L29.406,23.782L29.249,23.906L29.092,24.031L28.936,24.157L28.782,24.284L28.627,24.412L28.474,24.541L28.321,24.671L28.169,24.802L28.019,24.933L27.868,25.066L27.719,25.2L27.57,25.334L27.422,25.469L27.275,25.605L27.129,25.742L26.983,25.88L26.839,26.019L26.695,26.158L26.552,26.299L26.41,26.44L26.269,26.581L26.129,26.725L25.989,26.868L25.85,27.013L25.713,27.158L25.576,27.304L25.44,27.452L25.305,27.599L25.17,27.748L25.037,27.897L24.905,28.047L24.772,28.199L24.642,28.35L24.512,28.503L24.383,28.657L24.255,28.811L24.128,28.966L24.002,29.121L23.877,29.278L23.752,29.435L23.629,29.593L23.506,29.752L23.385,29.912L23.264,30.072L23.144,30.233L23.026,30.395L22.908,30.557L22.791,30.721L22.675,30.884L22.561,31.049L22.447,31.214L22.334,31.38L22.222,31.547L22.111,31.715L22.001,31.882L21.892,32.051L21.784,32.221L21.677,32.391L21.571,32.562L21.466,32.734L21.362,32.906L21.259,33.079L21.157,33.253L21.057,33.426L20.957,33.601L20.858,33.777L20.76,33.954L20.663,34.13L20.568,34.308L20.473,34.486L20.379,34.665L20.287,34.844L20.195,35.024L20.105,35.204L20.016,35.385L19.927,35.567L19.84,35.75L19.754,35.933L19.669,36.116L19.585,36.3L19.502,36.486L19.42,36.671L19.339,36.857L19.26,37.043L19.182,37.23L19.104,37.418L19.028,37.606L18.953,37.795L18.879,37.984L18.806,38.174L18.734,38.365L18.663,38.556L18.594,38.747L18.526,38.939L18.459,39.132L18.393,39.325L18.328,39.518L18.264,39.713L18.202,39.907L18.14,40.102L18.08,40.299L18.021,40.495L17.963,40.692L17.906,40.889L17.851,41.087L17.796,41.285L17.743,41.483L17.691,41.683L17.641,41.883L17.591,42.083L17.543,42.284L17.496,42.484L17.45,42.687L17.405,42.889L17.362,43.091L17.319,43.295L17.278,43.498L17.239,43.702L17.2,43.907L17.163,44.112L17.127,44.317L17.092,44.523L17.059,44.729L17.026,44.936L16.995,45.143L16.966,45.35L16.937,45.559L16.91,45.767L16.884,45.976L16.86,46.185L16.836,46.395L16.814,46.605L16.794,46.816L16.774,47.026L16.756,47.238L16.739,47.45L16.724,47.662L16.71,47.874L16.697,48.087L16.685,48.301L16.675,48.515L16.666,48.729L16.659,48.944L16.653,49.159L16.648,49.374L16.645,49.59L16.642,49.807L16.642,50.034L16.642,91.444L441.365,91.444L441.365,50.035L441.365,49.807L441.363,49.591L441.359,49.376L441.354,49.159L441.348,48.945L441.341,48.731L441.332,48.516L441.322,48.302L441.31,48.089L441.297,47.875L441.283,47.662L441.268,47.451L441.251,47.239L441.233,47.027L441.213,46.816L441.193,46.605L441.171,46.396L441.147,46.186L441.123,45.976L441.097,45.768L441.07,45.559L441.041,45.35L441.012,45.143L440.981,44.936L440.948,44.73L440.915,44.523L440.88,44.318L440.844,44.112L440.807,43.906L440.768,43.703L440.728,43.498L440.687,43.295L440.645,43.092L440.602,42.889L440.557,42.688L440.511,42.485L440.464,42.283L440.416,42.083L440.366,41.883L440.316,41.683L440.264,41.484L440.211,41.286L440.156,41.087L440.101,40.889L440.044,40.692L439.986,40.494L439.927,40.299L439.867,40.103L439.805,39.907L439.743,39.713L439.679,39.519L439.614,39.325L439.548,39.131L439.481,38.939L439.413,38.747L439.343,38.556L439.273,38.365L439.201,38.174L439.128,37.984L439.054,37.795L438.979,37.607L438.903,37.418L438.825,37.23L438.747,37.043L438.667,36.857L438.586,36.67L438.505,36.485L438.422,36.3L438.338,36.116L438.253,35.933L438.167,35.75L438.08,35.568L437.992,35.386L437.902,35.204L437.811,35.023L437.72,34.844L437.628,34.665L437.534,34.485L437.439,34.307L437.344,34.131L437.247,33.954L437.149,33.777L437.05,33.601L436.95,33.427L436.85,33.253L436.748,33.079L436.644,32.905L436.54,32.733L436.436,32.563L436.33,32.392L436.223,32.221L436.115,32.052L436.006,31.883L435.895,31.714L435.785,31.547L435.673,31.381L435.56,31.214L435.446,31.049L435.331,30.884L435.215,30.72L435.099,30.557L434.981,30.395L434.862,30.232L434.742,30.072L434.622,29.911L434.501,29.752L434.378,29.593L434.254,29.435L434.13,29.278L434.005,29.121L433.879,28.966L433.752,28.811L433.623,28.657L433.494,28.503L433.365,28.351L433.234,28.198L433.102,28.047L432.97,27.897L432.837,27.748L432.702,27.599L432.567,27.451L432.431,27.305L432.294,27.158L432.156,27.013L432.017,26.868L431.878,26.725L431.738,26.582L431.596,26.439L431.455,26.299L431.312,26.158L431.167,26.018L431.023,25.88L430.878,25.742L430.731,25.605L430.585,25.469L430.437,25.334L430.288,25.199L430.138,25.065L429.988,24.933L429.837,24.802L429.685,24.671L429.533,24.541L429.38,24.413L429.225,24.284L429.07,24.157L428.914,24.031L428.757,23.905L428.6,23.781L428.443,23.658L428.284,23.536L428.124,23.414L427.964,23.293L427.803,23.173L427.641,23.055L427.479,22.937L427.316,22.82L427.152,22.705L426.987,22.59L426.822,22.476L426.656,22.363L426.488,22.251L426.321,22.14L426.153,22.03L425.984,21.921L425.815,21.813L425.645,21.707L425.474,21.6L425.301,21.495L425.129,21.391L424.958,21.289L424.784,21.187L424.608,21.085L424.434,20.986L424.259,20.887L424.082,20.789L423.906,20.692L423.728,20.597L423.55,20.502L423.371,20.408L423.192,20.316L423.012,20.224L422.831,20.134L422.65,20.044L422.469,19.956L422.287,19.869L422.103,19.783L421.919,19.698L421.735,19.614L421.551,19.531L421.364,19.449L421.179,19.369L420.993,19.289L420.806,19.211L420.618,19.133L420.429,19.057L420.24,18.982L420.051,18.908L419.862,18.835L419.672,18.764L419.48,18.693L419.288,18.623L419.096,18.555L418.903,18.488L418.71,18.422L418.518,18.357L418.323,18.293L418.127,18.23L417.933,18.169L417.738,18.109L417.54,18.05L417.344,17.992L417.147,17.935L416.949,17.88L416.75,17.825L416.552,17.772L416.352,17.72L416.152,17.67L415.953,17.62L415.752,17.572L415.55,17.525L415.348,17.479L415.146,17.434L414.944,17.391L414.741,17.348L414.537,17.307L414.333,17.268L414.129,17.229L413.924,17.192L413.718,17.156L413.512,17.121L413.307,17.088L413.1,17.056L412.892,17.024L412.684,16.995L412.476,16.966L412.268,16.939L412.06,16.913L411.851,16.889L411.641,16.865L411.43,16.843L411.219,16.822L411.009,16.803L410.798,16.785L410.586,16.768L410.373,16.753L410.16,16.739L409.947,16.726L409.734,16.714L409.52,16.704L409.306,16.695L409.091,16.688L408.876,16.682L408.661,16.677L408.445,16.674L408.229,16.671L408.002,16.671L50.004,16.671Z" style="fill:rgb(119,174,204);"/>
                </g>
                <g transform="matrix(1.16378,0,0,1.16378,-140.113,-81.7125)">
                    <path d="M54.522,45.351C49.001,45.351 44.523,49.828 44.523,55.35C44.523,60.872 49,65.349 54.522,65.349L54.622,65.349C60.143,65.349 64.571,60.872 64.571,55.35C64.571,49.828 60.044,45.351 54.522,45.351Z" style="fill:rgb(119,174,204);fill-rule:nonzero;"/>
                </g>
                <g transform="matrix(1.16378,0,0,1.16378,-154.608,-81.7125)">
                    <path d="M102.467,45.351C96.946,45.351 92.468,49.828 92.468,55.35C92.468,60.872 96.945,65.349 102.467,65.349L102.566,65.349C108.087,65.349 112.516,60.872 112.516,55.35C112.516,49.828 107.989,45.351 102.467,45.351Z" style="fill:rgb(119,174,204);fill-rule:nonzero;"/>
                </g>
                <g transform="matrix(1.16378,0,0,1.16378,-169.103,-81.7125)">
                    <path d="M150.412,45.351C144.891,45.351 140.413,49.828 140.413,55.35C140.413,60.872 144.89,65.349 150.412,65.349L150.511,65.349C156.032,65.349 160.46,60.872 160.46,55.35C160.46,49.828 155.934,45.351 150.412,45.351Z" style="fill:rgb(119,174,204);fill-rule:nonzero;"/>
                </g>
                <g transform="matrix(1.16378,0,0,1.16378,-140.113,-81.7125)">
                    <path d="M395.663,45.351L274.322,45.351C268.801,45.351 264.323,49.828 264.323,55.35C264.323,60.872 268.8,65.349 274.322,65.349L395.663,65.349C401.184,65.349 405.662,60.872 405.662,55.35C405.662,49.828 401.184,45.351 395.663,45.351Z" style="fill:rgb(119,174,204);fill-rule:nonzero;"/>
                </g>
            </g>
            <g transform="matrix(0.624766,0,0,0.624766,23.2639,192.12)">
                <path d="M470.754,209.143C462.332,132.08 412.144,61.021 336.66,30.726L446.367,30.726C450.637,30.726 454.099,27.265 454.099,22.994C454.099,18.723 450.637,15.262 446.367,15.262C440.477,15.262 289.529,15.262 283.657,15.262L228.788,15.262C220.336,15.262 73.488,15.262 65.633,15.262C61.363,15.262 57.901,18.723 57.901,22.994C57.901,27.265 61.363,30.726 65.633,30.726L176.486,30.726C101.072,60.993 50.819,132.024 42.392,209.143C41.928,213.387 44.993,217.205 49.238,217.669C49.524,217.7 49.807,217.715 50.088,217.715C53.981,217.715 57.332,214.781 57.764,210.822C67.849,118.535 142.146,42.115 234.425,31.952C235.682,31.814 236.83,31.376 237.819,30.726L275.328,30.726C276.316,31.376 277.465,31.814 278.722,31.952C371,42.115 445.297,118.535 455.383,210.822C455.816,214.781 459.166,217.715 463.059,217.715C463.339,217.715 463.623,217.7 463.909,217.669C468.153,217.205 471.218,213.388 470.754,209.143Z" style="fill:rgb(0,170,240);fill-rule:nonzero;"/>
                <path d="M389.95,276.267L263.118,90.141C260.221,85.889 253.952,85.889 251.054,90.141L124.222,276.267C118.646,284.45 119.639,295.435 126.591,302.485L187.016,363.76C190.676,367.471 192.728,372.475 192.728,377.687L192.728,411.986L321.441,411.986L321.441,377.687C321.441,372.475 323.493,367.472 327.152,363.761L387.579,302.484C394.533,295.434 395.526,284.45 389.95,276.267Z" style="fill:rgb(255,200,80);fill-rule:nonzero;"/>
                <path d="M207.635,363.76L147.21,302.485C140.257,295.434 139.264,284.45 144.84,276.267L267.395,96.418L263.118,90.141C260.221,85.889 253.952,85.889 251.054,90.141L124.222,276.267C118.646,284.45 119.639,295.435 126.592,302.485L187.017,363.76C190.677,367.472 192.729,372.474 192.729,377.687L192.729,411.986L213.347,411.986L213.347,377.687C213.347,372.474 211.295,367.471 207.635,363.76Z" style="fill:rgb(249,180,40);fill-rule:nonzero;"/>
                <path d="M263.118,90.141C260.221,85.889 253.952,85.889 251.054,90.141L249.354,92.636L249.354,304.168C249.354,308.439 252.816,311.9 257.086,311.9C261.356,311.9 264.818,308.439 264.818,304.168L264.818,92.635L263.118,90.141Z" style="fill:rgb(229,159,35);fill-rule:nonzero;"/>
                <path d="M267.762,284.892L246.41,284.892C235.765,284.892 227.134,293.523 227.134,304.168C227.134,314.814 235.765,323.444 246.41,323.444L267.763,323.444C278.408,323.444 287.039,314.814 287.039,304.168C287.039,293.523 278.408,284.892 267.762,284.892Z" style="fill:rgb(229,159,35);fill-rule:nonzero;"/>
                <path d="M267.762,303.056L246.41,303.056C239.513,303.056 233.478,299.421 230.072,293.974C228.221,296.934 227.134,300.42 227.134,304.168C227.134,314.814 235.765,323.444 246.41,323.444L267.763,323.444C278.408,323.444 287.039,314.814 287.039,304.168C287.039,300.42 285.952,296.934 284.101,293.974C280.694,299.421 274.66,303.056 267.762,303.056Z" style="fill:rgb(211,137,19);fill-rule:nonzero;"/>
                <path d="M204.743,466.682L204.743,500.773C204.743,506.974 209.77,512 215.97,512L298.202,512C304.403,512 309.429,506.974 309.429,500.773L309.429,466.682L204.743,466.682Z" style="fill:rgb(228,234,248);fill-rule:nonzero;"/>
                <path d="M225.36,500.773L225.36,466.683L204.742,466.683L204.742,500.773C204.742,506.974 209.769,512 215.969,512L236.587,512C230.387,512 225.36,506.973 225.36,500.773Z" style="fill:rgb(216,220,229);fill-rule:nonzero;"/>
                <path d="M326.297,411.076L187.875,411.076C181.071,411.076 175.504,416.643 175.504,423.447L175.504,454.889C175.504,461.693 181.071,467.26 187.875,467.26L326.297,467.26C333.101,467.26 338.668,461.693 338.668,454.889L338.668,423.447C338.668,416.643 333.101,411.076 326.297,411.076Z" style="fill:rgb(216,220,229);fill-rule:nonzero;"/>
                <path d="M326.297,446.642L187.875,446.642C181.071,446.642 175.504,441.075 175.504,434.271L175.504,454.889C175.504,461.693 181.071,467.26 187.875,467.26L326.297,467.26C333.101,467.26 338.668,461.693 338.668,454.889L338.668,434.271C338.668,441.075 333.101,446.642 326.297,446.642Z" style="fill:rgb(195,200,209);fill-rule:nonzero;"/>
                <path d="M59.726,207.922L37.923,207.922C31.244,207.922 25.83,213.337 25.83,220.015L25.83,241.817C25.83,248.496 31.244,253.91 37.923,253.91L59.726,253.91C66.405,253.91 71.819,248.495 71.819,241.817L71.819,220.015C71.819,213.336 66.405,207.922 59.726,207.922Z" style="fill:rgb(255,80,80);fill-rule:nonzero;"/>
                <path d="M46.448,241.817L46.448,220.015C46.448,213.336 51.862,207.922 58.541,207.922L59.727,207.922L59.726,207.922L37.923,207.922C31.244,207.922 25.83,213.337 25.83,220.015L25.83,241.817C25.83,248.496 31.244,253.91 37.923,253.91L58.541,253.91C51.862,253.91 46.448,248.496 46.448,241.817Z" style="fill:rgb(237,58,58);fill-rule:nonzero;"/>
                <circle cx="48.824" cy="22.994" r="22.994" style="fill:rgb(255,80,80);"/>
                <path d="M46.448,22.994C46.448,14.002 51.612,6.221 59.134,2.441C56.032,0.883 52.532,0 48.824,0C36.125,0 25.83,10.295 25.83,22.994C25.83,35.693 36.125,45.988 48.825,45.988C52.533,45.988 56.032,45.105 59.134,43.546C51.612,39.767 46.448,31.986 46.448,22.994Z" style="fill:rgb(237,58,58);fill-rule:nonzero;"/>
                <path d="M474.077,207.922L452.274,207.922C445.595,207.922 440.181,213.337 440.181,220.015L440.181,241.817C440.181,248.496 445.595,253.91 452.274,253.91L474.077,253.91C480.756,253.91 486.17,248.495 486.17,241.817L486.17,220.015C486.17,213.336 480.756,207.922 474.077,207.922Z" style="fill:rgb(255,80,80);fill-rule:nonzero;"/>
                <path d="M460.799,241.817L460.799,220.015C460.799,213.336 466.213,207.922 472.892,207.922L474.078,207.922L474.077,207.922L452.274,207.922C445.595,207.922 440.181,213.337 440.181,220.015L440.181,241.817C440.181,248.496 445.595,253.91 452.274,253.91L472.892,253.91C466.213,253.91 460.799,248.496 460.799,241.817Z" style="fill:rgb(237,58,58);fill-rule:nonzero;"/>
                <path d="M267.474,0L245.671,0C238.992,0 233.578,5.415 233.578,12.093L233.578,33.895C233.578,40.574 238.992,45.988 245.671,45.988L267.474,45.988C274.153,45.988 279.567,40.573 279.567,33.895L279.567,12.093C279.567,5.415 274.153,0 267.474,0Z" style="fill:rgb(255,80,80);fill-rule:nonzero;"/>
                <path d="M254.196,33.896L254.196,12.093C254.196,5.415 259.61,0 266.289,0L267.475,0L267.474,0L245.671,0C238.992,0 233.578,5.415 233.578,12.093L233.578,33.895C233.578,40.574 238.992,45.988 245.671,45.988L266.289,45.988C259.61,45.989 254.196,40.574 254.196,33.896Z" style="fill:rgb(237,58,58);fill-rule:nonzero;"/>
                <circle cx="463.07" cy="23.2" r="22.994" style="fill:rgb(255,80,80);"/>
                <path d="M460.691,23.195C460.691,14.203 465.855,6.422 473.377,2.642C470.276,1.083 466.776,0.2 463.068,0.2C450.368,0.2 440.073,10.495 440.073,23.194C440.073,35.893 450.368,46.188 463.068,46.188C466.776,46.188 470.275,45.305 473.377,43.746C465.855,39.968 460.691,32.187 460.691,23.195Z" style="fill:rgb(237,58,58);fill-rule:nonzero;"/>
            </g>
            <g transform="matrix(0.4625,0,0,0.4625,403.54,655.209)">
                <g transform="matrix(1.44951,0,0,1.44951,-482.377,-787.645)">
                    <rect x="215.097" y="201.896" width="38.586" height="127.874" style="fill:rgb(158,107,87);"/>
                </g>
                <g transform="matrix(1.44951,0,0,1.44951,-482.377,-787.645)">
                    <rect x="215.097" y="201.896" width="20.605" height="127.874" style="fill:rgb(140,90,75);"/>
                </g>
                <g transform="matrix(1.44951,0,0,1.44951,-482.377,-787.645)">
                    <path d="M215.098,201.893L249.152,129.672C250.633,126.531 255.102,126.531 256.583,129.672L290.637,201.893L215.098,201.893Z" style="fill:rgb(228,234,248);fill-rule:nonzero;"/>
                </g>
                <g transform="matrix(1.44951,0,0,1.44951,-482.377,-787.645)">
                    <path d="M256.583,129.672C255.102,126.531 250.633,126.531 249.152,129.672L215.098,201.894L235.703,201.894L263.17,143.641L256.583,129.672Z" style="fill:rgb(216,220,229);fill-rule:nonzero;"/>
                </g>
                <g transform="matrix(1.44951,0,0,1.44951,-482.377,-787.645)">
                    <path d="M249.151,129.672L229.056,172.29L276.677,172.29L256.582,129.672C255.102,126.53 250.633,126.53 249.151,129.672Z" style="fill:rgb(112,116,135);fill-rule:nonzero;"/>
                </g>
                <g transform="matrix(1.44951,0,0,1.44951,-482.377,-787.645)">
                    <path d="M249.672,128.85C249.476,129.097 249.296,129.364 249.151,129.671L229.056,172.289L249.661,172.289L263.169,143.64L256.582,129.671C255.246,126.837 251.484,126.569 249.672,128.85Z" style="fill:rgb(94,99,119);fill-rule:nonzero;"/>
                </g>
                <g transform="matrix(1.44951,0,0,1.44951,-482.377,-787.645)">
                    <rect x="252.868" y="201.896" width="37.769" height="127.874" style="fill:rgb(173,123,100);"/>
                </g>
            </g>
            <g transform="matrix(0.4625,0,0,0.4625,407.888,654.573)">
                <g transform="matrix(1.44951,0,0,1.44951,-482.377,-787.645)">
                    <path d="M329.168,75.8C326.71,75.8 324.718,77.792 324.718,80.25L324.718,330.717L400.494,330.717L400.494,80.251C400.494,77.793 398.502,75.801 396.044,75.801C394.446,75.8 328.047,75.8 329.168,75.8Z" style="fill:rgb(255,200,80);fill-rule:nonzero;"/>
                </g>
                <g transform="matrix(1.44951,0,0,1.44951,-482.377,-787.645)">
                    <path d="M349.772,75.8L329.167,75.8C326.709,75.8 324.717,77.793 324.717,80.25L324.717,330.718L345.322,330.718L345.322,80.251C345.322,77.792 347.315,75.8 349.772,75.8Z" style="fill:rgb(229,159,35);fill-rule:nonzero;"/>
                </g>
                <g transform="matrix(1.44951,0,0,1.44951,-482.377,-787.645)">
                    <path d="M372.379,228.75C372.379,233.043 375.859,236.523 380.152,236.523L400.495,236.523L400.495,220.978L380.152,220.978C375.859,220.978 372.379,224.457 372.379,228.75Z" style="fill:rgb(229,159,35);fill-rule:nonzero;"/>
                    <path d="M400.495,271.961L380.152,271.961C375.859,271.961 372.379,275.441 372.379,279.734C372.379,284.027 375.859,287.507 380.152,287.507L400.495,287.507L400.495,271.961Z" style="fill:rgb(229,159,35);fill-rule:nonzero;"/>
                    <path d="M372.379,126.784C372.379,131.077 375.859,134.557 380.152,134.557L400.495,134.557L400.495,119.012L380.152,119.012C375.859,119.011 372.379,122.491 372.379,126.784Z" style="fill:rgb(229,159,35);fill-rule:nonzero;"/>
                    <path d="M372.379,177.767C372.379,182.06 375.859,185.54 380.152,185.54L400.495,185.54L400.495,169.995L380.152,169.995C375.859,169.994 372.379,173.474 372.379,177.767Z" style="fill:rgb(229,159,35);fill-rule:nonzero;"/>
                </g>
            </g>
        </g>
    </g>
</svg>
