<?xml version="1.0" encoding="UTF-8" standalone="no"?>
<!DOCTYPE svg PUBLIC "-//W3C//DTD SVG 1.1//EN" "http://www.w3.org/Graphics/SVG/1.1/DTD/svg11.dtd">
<svg width="100%" height="100%" viewBox="0 0 352 355" version="1.1" xmlns="http://www.w3.org/2000/svg" xmlns:xlink="http://www.w3.org/1999/xlink" xml:space="preserve" xmlns:serif="http://www.serif.com/" style="fill-rule:evenodd;clip-rule:evenodd;stroke-linejoin:round;stroke-miterlimit:1.41421;">
    <g transform="matrix(1,0,0,1,-1967.98,-529.094)">
        <g transform="matrix(2.19972,0,0,2.19972,2073.64,407.339)">
            <g transform="matrix(0.313626,0,0,0.313626,-7.74198,77.3172)">
                <g transform="matrix(1.16378,0,0,1.16378,-140.113,-81.7125)">
                    <path d="M448.008,50.024C448.008,27.936 430.101,10.029 408.013,10.029L49.994,10.029C27.906,10.029 9.999,27.936 9.999,50.024L9.999,365.957C9.999,386.958 27.024,403.983 48.025,403.983L409.983,403.983C430.984,403.983 448.009,386.958 448.009,365.957L448.009,50.024L448.008,50.024Z" style="fill:rgb(241,243,246);fill-rule:nonzero;"/>
                </g>
                <g transform="matrix(1.16378,0,0,1.16378,-140.113,-81.7125)">
                    <path d="M448.008,50.024C448.008,27.936 430.101,10.029 408.013,10.029L49.994,10.029C27.906,10.029 9.999,27.936 9.999,50.024L10.059,98.087L344.758,403.983L409.983,403.983C430.984,403.983 448.009,386.958 448.009,365.957L448.009,50.024L448.008,50.024Z" style="fill:rgb(226,230,235);fill-rule:nonzero;"/>
                </g>
                <g transform="matrix(1.16378,0,0,1.16378,-140.113,-81.7125)">
                    <path d="M408.012,10.028L49.994,10.028C27.905,10.028 9.999,27.935 9.999,50.023L9.999,98.087L448.008,98.087L448.008,50.024C448.008,27.934 430.101,10.028 408.012,10.028Z" style="fill:rgb(93,103,108);fill-rule:nonzero;"/>
                </g>
                <g transform="matrix(1.16378,0,0,1.16378,-140.113,-81.7125)">
                    <path d="M54.522,45.351C49.001,45.351 44.523,49.828 44.523,55.35C44.523,60.872 49,65.349 54.522,65.349L54.622,65.349C60.143,65.349 64.571,60.872 64.571,55.35C64.571,49.828 60.044,45.351 54.522,45.351Z" style="fill:rgb(226,87,76);fill-rule:nonzero;"/>
                </g>
                <g transform="matrix(1.16378,0,0,1.16378,-154.608,-81.7125)">
                    <path d="M102.467,45.351C96.946,45.351 92.468,49.828 92.468,55.35C92.468,60.872 96.945,65.349 102.467,65.349L102.566,65.349C108.087,65.349 112.516,60.872 112.516,55.35C112.516,49.828 107.989,45.351 102.467,45.351Z" style="fill:rgb(239,199,94);fill-rule:nonzero;"/>
                </g>
                <g transform="matrix(1.16378,0,0,1.16378,-169.103,-81.7125)">
                    <path d="M150.412,45.351C144.891,45.351 140.413,49.828 140.413,55.35C140.413,60.872 144.89,65.349 150.412,65.349L150.511,65.349C156.032,65.349 160.46,60.872 160.46,55.35C160.46,49.828 155.934,45.351 150.412,45.351Z" style="fill:rgb(99,217,81);fill-rule:nonzero;"/>
                </g>
                <g transform="matrix(1.16378,0,0,1.16378,-140.113,-81.7125)">
                    <path d="M395.663,45.351L274.322,45.351C268.801,45.351 264.323,49.828 264.323,55.35C264.323,60.872 268.8,65.349 274.322,65.349L395.663,65.349C401.184,65.349 405.662,60.872 405.662,55.35C405.662,49.828 401.184,45.351 395.663,45.351Z" style="fill:white;fill-rule:nonzero;"/>
                </g>
            </g>
            <g transform="matrix(0.193283,0,0,0.193283,35.9899,104.526)">
                <g>
                    <path d="M188.373,44.308C199.343,32.564 206.763,16.259 204.732,0C188.928,0.564 169.774,9.277 158.43,21.02C148.261,31.416 139.358,48.031 141.734,63.971C159.369,65.164 177.385,56.033 188.373,44.308ZM222.03,156.593C221.693,120.142 250.889,102.635 252.182,101.789C235.768,77.036 210.205,73.649 201.101,73.267C179.334,70.982 158.659,86.449 147.608,86.449C136.602,86.449 119.578,73.567 101.525,73.913C77.792,74.304 55.924,88.124 43.735,110.027C19.081,154.09 37.416,219.363 61.44,255.104C73.184,272.601 87.167,292.229 105.529,291.519C123.254,290.809 129.936,279.73 151.321,279.73C172.715,279.73 178.705,291.519 197.422,291.164C216.467,290.809 228.52,273.33 240.164,255.778C253.637,235.486 259.191,215.84 259.509,214.848C259.1,214.611 222.421,200.182 222.03,156.593Z" style="fill:white;fill-rule:nonzero;"/>
                </g>
            </g>
            <g transform="matrix(0.1455,0,0,0.1455,8.71957,173.964)">
                <g>
                    <g>
                        <path d="M145.683,90.937C175.853,90.937 200.305,115.408 200.305,145.559C200.305,175.738 175.852,200.181 145.683,200.181C115.531,200.181 91.061,175.728 91.061,145.559C91.061,115.408 115.532,90.937 145.683,90.937Z" style="fill:rgb(38,166,209);fill-rule:nonzero;"/>
                        <path d="M145.683,218.398C108.831,218.398 78.452,191.014 73.609,155.473L23.402,68.414L23.347,68.287L17.73,76.398C16.346,78.938 14.999,81.514 13.761,84.145L11.075,90.427C10.183,92.594 9.3,94.788 8.508,97.027C7.616,99.512 6.842,102.025 6.105,104.547L4.485,110.346C3.811,113.05 3.238,115.754 2.719,118.476L1.736,124.22C1.335,126.887 1.026,129.537 0.789,132.186L0.316,138.531C0.198,140.953 0.152,143.365 0.152,145.787C0.152,148.209 0.188,150.63 0.316,153.043L0.789,159.388C1.035,162.037 1.353,164.705 1.736,167.354L2.719,173.098C3.247,175.82 3.811,178.524 4.485,181.228L6.105,187.027C6.852,189.531 7.616,192.061 8.508,194.547C9.3,196.768 10.192,198.953 11.075,201.147C11.949,203.241 12.786,205.344 13.761,207.419C14.999,210.05 16.346,212.608 17.739,215.175L19.551,218.735L20.389,220.037C21.991,222.777 23.757,225.39 25.542,228.003L28.401,232.254C30.122,234.603 32.006,236.842 33.891,239.1L37.66,243.615C39.299,245.408 41.056,247.12 42.785,248.841C44.515,250.58 46.217,252.364 48.02,253.975L52.535,257.762C54.793,259.628 57.032,261.513 59.381,263.242L63.596,266.119C66.218,267.912 68.849,269.679 71.562,271.272L72.855,272.11L76.405,273.922C78.954,275.306 81.521,276.68 84.152,277.909L84.908,278.3L88.595,279.811C98.445,284.008 108.732,286.976 119.22,288.933L160.778,216.868C155.907,217.843 150.863,218.398 145.683,218.398Z" style="fill:rgb(61,179,158);fill-rule:nonzero;"/>
                        <path d="M290.851,135.636L290.66,133.233C289.631,121.07 284.633,103.464 280.482,91.647L194.516,91.647C209.218,104.966 218.513,124.147 218.513,145.559C218.513,168.664 207.725,189.211 190.974,202.548L139.766,291.364C157.773,291.364 182.016,288.114 199.459,281.141L200.051,280.95L200.98,280.559C206.925,278.092 212.806,275.388 218.532,272.074C223.657,269.124 228.455,265.811 233.089,262.351L233.353,262.142C237.814,258.764 241.992,255.169 245.98,251.381L246.599,250.844L248.611,248.796C257.423,239.974 264.989,230.234 271.161,219.728L271.862,218.699L273.127,216.141C275.112,212.536 276.951,208.849 278.626,205.098L280.774,200.045C282.194,196.485 283.432,192.88 284.57,189.23L286.072,184.532C287.465,179.461 288.603,174.345 289.45,169.165L289.805,166.215C290.433,161.772 290.879,157.302 291.107,152.787L291.189,149.173C291.261,144.676 291.17,140.152 290.851,135.636Z" style="fill:rgb(239,199,94);fill-rule:nonzero;"/>
                        <path d="M271.779,72.73C268.729,67.45 265.315,62.525 261.728,57.773L260.554,56.316C257.331,52.156 253.917,48.205 250.312,44.49L247.872,41.986C243.912,38.09 239.806,34.393 235.5,31.016L234.553,30.215C229.755,26.519 224.73,23.196 219.55,20.155L218.512,19.463L214.57,17.415C212.294,16.186 210.027,14.957 207.688,13.855C205.439,12.808 203.173,11.879 200.906,10.942L195.198,8.666C192.44,7.674 189.654,6.836 186.859,5.98L182.216,4.633C179.175,3.85 176.107,3.231 173.049,2.639L168.716,1.783C165.73,1.301 162.744,1 159.749,0.718L154.842,0.217C152.275,0.053 149.717,0.071 147.131,0.035L140.813,0L135.897,0.355C125.027,1.083 114.157,3.022 103.479,6.254L101.267,6.855C98.563,7.729 95.896,8.794 93.219,9.841L88.085,11.871C85.882,12.809 83.706,13.91 81.521,14.994C79.409,16.032 77.288,17.079 75.212,18.235L72.845,19.446L69.349,21.704C67.282,22.979 65.234,24.28 63.222,25.664C61.256,27.039 59.317,28.441 57.423,29.879L52.416,33.876C50.349,35.606 48.338,37.363 46.38,39.183L42.666,42.806C40.508,44.973 38.396,47.176 36.403,49.452L35.047,51.091L76.478,122.965C85.991,93.824 113.366,72.731 145.694,72.731C145.692,72.73 271.779,72.73 271.779,72.73Z" style="fill:rgb(226,87,76);fill-rule:nonzero;"/>
                    </g>
                </g>
            </g>
            <g transform="matrix(0.154216,0,0,0.154216,-39.9855,174.318)">
                <g>
                    <path d="M107.623,67.226C96.699,79.061 91.236,93.627 89.416,109.103C122.189,109.103 154.052,109.103 185.915,109.103C185.915,106.372 185.915,104.551 185.915,101.82C185.005,91.806 183.184,81.792 177.722,72.688C170.439,60.853 158.604,54.481 144.949,52.66C124.921,49.019 105.803,52.66 87.596,59.943C60.285,69.957 37.526,86.344 19.318,108.193C16.587,111.834 13.856,116.386 10.214,120.938C10.214,118.207 10.214,117.297 11.124,115.476C14.765,89.986 23.869,65.406 41.166,45.377C61.195,21.708 86.685,7.142 117.638,1.68C147.68,-2.872 175.902,1.68 202.303,17.156C226.883,30.812 243.27,51.75 253.284,78.151C258.746,92.717 261.477,109.104 262.388,124.58L262.388,158.263C205.035,158.263 148.592,158.263 91.238,158.263C91.238,171.919 95.79,184.664 104.894,194.678C115.818,206.513 130.384,211.975 144.95,214.706C177.723,219.258 207.766,213.796 235.987,197.409C236.897,197.409 237.808,196.499 237.808,196.499L238.718,196.499L238.718,251.121C238.718,252.942 237.808,253.852 235.987,254.762C215.959,264.776 194.11,271.149 171.351,272.059C156.785,272.969 142.219,272.969 128.564,270.238C85.777,261.134 51.182,230.182 42.989,185.573C33.885,134.592 58.465,88.163 106.715,67.225C106.713,67.226 106.713,67.226 107.623,67.226Z" style="fill:rgb(38,166,209);fill-rule:nonzero;"/>
                </g>
            </g>
            <g transform="matrix(0.109975,0,0,0.109975,-30.0858,104.526)">
                <path d="M242.526,40.421L512,0L512,239.832L242.526,239.832L242.526,40.421Z" style="fill:rgb(144,195,0);fill-rule:nonzero;"/>
                <path d="M0,75.453L206.596,44.912L206.596,242.526L0,242.526L0,75.453Z" style="fill:rgb(248,103,44);fill-rule:nonzero;"/>
                <path d="M242.526,471.579L512,512L512,278.456L242.526,278.456L242.526,471.579Z" style="fill:rgb(255,196,0);fill-rule:nonzero;"/>
                <path d="M0,436.547L206.596,467.088L206.596,278.456L0,278.456L0,436.547Z" style="fill:rgb(0,180,242);fill-rule:nonzero;"/>
            </g>
            <g transform="matrix(0.1455,0,0,0.1455,59.3537,173.971)">
                <g transform="matrix(3.12443,0,0,3.12443,-6868.13,-2277.12)">
                    <circle cx="2244.83" cy="775.425" r="40.233" style="fill:rgb(137,209,233);"/>
                </g>
                <path d="M145.66,0C65.547,0 0,65.547 0,145.66C0,225.773 65.547,291.32 145.66,291.32C225.773,291.32 291.32,225.773 291.32,145.66C291.32,65.547 225.772,0 145.66,0ZM145.66,264.008C80.113,264.008 27.312,211.206 27.312,145.66C27.312,80.114 80.113,27.311 145.66,27.311C211.207,27.311 264.008,80.113 264.008,145.66C264.008,211.207 211.206,264.008 145.66,264.008Z" style="fill:rgb(38,166,209);fill-rule:nonzero;"/>
                <path d="M221.22,70.099L164.777,164.778L126.541,126.542C126.542,126.542 221.22,70.099 221.22,70.099Z" style="fill:rgb(226,87,76);fill-rule:nonzero;"/>
                <path d="M70.099,221.22L164.778,164.777L126.542,126.541C126.542,126.542 70.099,221.22 70.099,221.22Z" style="fill:rgb(239,237,237);fill-rule:nonzero;"/>
            </g>
        </g>
    </g>
</svg>
